<?xml version="1.0" encoding="utf-8"?>
<!-- Generator: Adobe Illustrator 19.1.0, SVG Export Plug-In . SVG Version: 6.00 Build 0)  -->
<svg version="1.1" id="Capa_1" xmlns="http://www.w3.org/2000/svg" xmlns:xlink="http://www.w3.org/1999/xlink" x="0px" y="0px"
	 viewBox="0 0 398.7 202.4" style="enable-background:new 0 0 398.7 202.4;" xml:space="preserve">
<style type="text/css">
	.st0{fill:#DC303B;}
	.st1{fill:#E2E0E0;}
	.st2{fill:#FF3B57;}
	.st3{fill:#ECEBEB;}
	.st4{fill:#FFFFFF;}
	.st5{fill:none;}
	.st6{fill:#E5A228;}
	.st7{fill:#E2E2E2;}
	.st8{fill:#F1BF26;}
	.st9{fill:#212121;}
</style>
<g>
	<polygon class="st0" points="235.8,145.1 224.2,48 297.7,22.7 371,48 359.8,145.1 297.7,179.8 	"/>
	<path class="st1" d="M297.7,27l68.9,23.8L356,142.6l-58.3,32.6l-58.1-32.6l-11-91.9L297.7,27z M297.7,18.4l-78,26.8L232,147.7
		l65.7,36.8l65.8-36.9l11.9-102.4L297.7,18.4z"/>
	<polygon class="st2" points="297.7,37 297.6,37 297.6,170.7 297.7,170.7 350.7,141 360.3,58.5 	"/>
	<polygon class="st3" points="256,138.2 297.6,46.1 297.6,75.8 285.3,104.8 297.6,104.8 297.6,117.1 280,117.2 271.7,138.2 	"/>
	<polygon class="st4" points="339.1,138.2 297.6,46.1 297.6,75.8 309.8,104.8 297.6,104.8 297.6,117.1 315.2,117.2 323.5,138.2 	"/>
	<rect x="196.4" class="st5" width="202.3" height="202.3"/>
	<g>
		<polygon class="st6" points="39.4,145.2 27.7,48.1 101.3,22.8 174.6,48.1 163.3,145.1 101.3,179.9 		"/>
		<path class="st7" d="M101.3,27.1l68.9,23.8l-10.6,91.8l-58.3,32.6l-58.1-32.6l-11-91.9L101.3,27.1z M101.3,18.5l-78,26.8
			l12.3,102.4l65.7,36.8l65.8-36.9L179,45.3L101.3,18.5z"/>
		<polygon class="st8" points="101.3,34.6 101.2,34.7 101.2,168.3 101.3,168.4 154.3,138.7 163.9,56.2 		"/>
		<polygon class="st4" points="60.5,59 61.8,75.1 123.7,75.1 119.2,128.6 101.2,133.5 83.1,128.6 81.8,115.7 65.7,115.7 67.9,141.2 
			101.2,150.3 134.4,140.9 141.8,58.7 60.5,58.7 		"/>
		<path class="st3" d="M101.2,133.5l-18.1-4.8l-1.3-12.9H65.7l2.3,25.5l33.2,9V133.5z M62.1,74.8h39V58.7H60.5L62.1,74.8z"/>
	</g>
	<rect x="0" y="0" class="st5" width="202.3" height="202.3"/>
	<g>
		<path class="st9" d="M200.4,104.2h7.8v2.1h-7.8v7.8h-2.1v-7.8h-7.8v-2.1h7.8v-7.8h2.1V104.2z"/>
	</g>
</g>
<g>
</g>
<g>
</g>
<g>
</g>
<g>
</g>
<g>
</g>
<g>
</g>
<g>
</g>
<g>
</g>
<g>
</g>
<g>
</g>
<g>
</g>
</svg>
