<?xml version="1.0" encoding="utf-8"?>
<!-- Generator: Adobe Illustrator 19.1.0, SVG Export Plug-In . SVG Version: 6.00 Build 0)  -->
<svg version="1.1" xmlns="http://www.w3.org/2000/svg" xmlns:xlink="http://www.w3.org/1999/xlink" x="0px" y="0px"
	 viewBox="0 0 800 800" style="enable-background:new 0 0 800 800;" xml:space="preserve">
<style type="text/css">
	.st0{fill:#AF978B;stroke:#302D2D;stroke-width:4;stroke-linecap:round;stroke-linejoin:round;stroke-miterlimit:10;}
	.st1{fill:#A08373;stroke:#302D2D;stroke-width:4;stroke-linecap:round;stroke-linejoin:round;stroke-miterlimit:10;}
	.st2{fill:#00D9CE;stroke:#302D2D;stroke-width:4;stroke-linecap:round;stroke-linejoin:round;stroke-miterlimit:10;}
	.st3{fill:none;stroke:#302D2D;stroke-width:4;stroke-linecap:round;stroke-linejoin:round;stroke-miterlimit:10;}
	.st4{fill:#F5F5F5;stroke:#302D2D;stroke-width:4;stroke-linecap:round;stroke-linejoin:round;stroke-miterlimit:10;}
	.st5{fill:#FBB03B;stroke:#302D2D;stroke-width:4;stroke-linecap:round;stroke-linejoin:round;stroke-miterlimit:10;}
	.st6{fill:#697271;stroke:#302D2D;stroke-width:4;stroke-linecap:round;stroke-linejoin:round;stroke-miterlimit:10;}
	.st7{fill:#302D2D;stroke:#302D2D;stroke-width:4;stroke-linecap:round;stroke-linejoin:round;stroke-miterlimit:10;}
	.st8{fill:#F2F2F2;}
	.st9{fill:#04C4D5;stroke:#302D2D;stroke-width:4;stroke-linecap:round;stroke-linejoin:round;stroke-miterlimit:10;}
	.st10{fill:#F2F2F2;stroke:#302D2D;stroke-width:4;stroke-linecap:round;stroke-linejoin:round;stroke-miterlimit:10;}
	.st11{fill:#DDC622;stroke:#302D2D;stroke-width:4;stroke-miterlimit:10;}
	.st12{fill:#F15A24;stroke:#302D2D;stroke-width:4;stroke-linecap:round;stroke-linejoin:round;stroke-miterlimit:10;}
	.st13{fill:#CCCCCC;}
	.st14{fill:#80CA8B;stroke:#302D2D;stroke-width:4;stroke-linecap:round;stroke-linejoin:round;stroke-miterlimit:10;}
	.st15{fill:#DDC622;stroke:#302D2D;stroke-width:4;stroke-linecap:round;stroke-linejoin:round;stroke-miterlimit:10;}
	.st16{fill:#565656;stroke:#302D2D;stroke-width:4;stroke-linecap:round;stroke-linejoin:round;stroke-miterlimit:10;}
	.st17{fill:#F5F5F5;stroke:#302D2D;stroke-width:2;stroke-linecap:round;stroke-linejoin:round;stroke-miterlimit:10;}
	.st18{fill:#04C4D5;}
	.st19{fill:#302D2D;}
	.st20{fill:#F5F5F5;}
</style>
<g id="Background">
</g>
<g id="Objects">
	<polygon class="st0" points="487.5,542.6 467.5,542.8 472.3,756.6 487.4,756.6 	"/>
	<rect x="38.3" y="513.3" class="st0" width="182.3" height="243.3"/>
	<rect x="47.6" y="520" class="st1" width="162.5" height="26.8"/>
	<circle class="st1" cx="128.8" cy="533.4" r="3.8"/>
	<rect x="47.6" y="558.1" class="st1" width="162.5" height="170.1"/>
	<path class="st1" d="M194.1,643.2c0,2.1-1.7,3.8-3.8,3.8c-2.1,0-3.8-1.7-3.8-3.8c0-2.1,1.7-3.8,3.8-3.8
		C192.4,639.4,194.1,641.1,194.1,643.2z"/>
	<rect x="337.3" y="520" class="st1" width="162.5" height="26.8"/>
	<circle class="st1" cx="418.6" cy="533.4" r="3.8"/>
	<rect x="30.9" y="506.6" class="st1" width="479.4" height="13.4"/>
	<g>
		<g>
			<rect x="595.9" y="214.4" class="st1" width="121.9" height="135"/>
			<rect x="607.3" y="225" class="st2" width="99" height="113.9"/>
			<path class="st3" d="M642.8,214.4l7.6-11.6c3.6-5.5,9.4-5.5,13,0l7.6,11.6"/>
			<polygon class="st4" points="705.7,338.9 634.4,338.9 670,277.2 			"/>
			<polygon class="st4" points="678.4,338.9 607.2,338.9 632.3,277.2 633.7,274 642.8,251.6 			"/>
			<circle class="st5" cx="680.8" cy="251.6" r="11.1"/>
			<polygon class="st4" points="637,285.1 642.8,279.3 652.1,285.1 654.1,279.3 642.8,251.6 630.7,281.3 			"/>
			<polygon class="st4" points="665.6,307.6 671.3,301.8 680.6,307.6 684,301.4 670,277.2 660.2,294.3 			"/>
		</g>
		<circle class="st1" cx="656.8" cy="202.4" r="3.7"/>
	</g>
	<g>
		<rect x="539.1" y="506.6" class="st1" width="235.4" height="227.9"/>
		<rect x="558.7" y="521.3" class="st1" width="196.2" height="40.3"/>
		<rect x="558.7" y="573.4" class="st1" width="196.2" height="40.3"/>
		<rect x="558.7" y="625.6" class="st1" width="196.2" height="40.3"/>
		<rect x="558.7" y="677.8" class="st1" width="196.2" height="40.3"/>
		<rect x="547.5" y="734.5" class="st1" width="218.6" height="22.1"/>
		<rect x="545.3" y="736.7" class="st1" width="223.1" height="5.9"/>
		<ellipse class="st1" cx="656.8" cy="541.4" rx="4.1" ry="4"/>
		<path class="st1" d="M660.8,593.6c0,2.2-1.8,4-4.1,4c-2.3,0-4.1-1.8-4.1-4c0-2.2,1.8-4,4.1-4C659,589.6,660.8,591.4,660.8,593.6z"
			/>
		<ellipse class="st1" cx="656.8" cy="645.8" rx="4.1" ry="4"/>
		<path class="st1" d="M660.8,697.9c0,2.2-1.8,4-4.1,4c-2.3,0-4.1-1.8-4.1-4c0-2.2,1.8-4,4.1-4C659,693.9,660.8,695.7,660.8,697.9z"
			/>
	</g>
	
		<rect x="28.3" y="373.9" transform="matrix(0.7608 -0.649 0.649 0.7608 -228.9191 140.372)" class="st3" width="95.3" height="13.8"/>
	
		<rect x="15.9" y="446.7" transform="matrix(0.4603 0.8878 -0.8878 0.4603 436.9578 188.3767)" class="st3" width="95.3" height="13.8"/>
	<path class="st6" d="M52.3,411.2c0,5.9-4.8,10.7-10.7,10.7c-5.9,0-10.7-4.8-10.7-10.7c0-5.9,4.8-10.7,10.7-10.7
		C47.5,400.5,52.3,405.3,52.3,411.2z"/>
	<path class="st6" d="M86.5,489.7c-14.2,0-25.8,7.1-25.8,15.8h51.5C112.3,496.8,100.7,489.7,86.5,489.7z"/>
	<path class="st5" d="M45.5,411.2c0,2.2-1.8,3.9-3.9,3.9c-2.2,0-3.9-1.8-3.9-3.9c0-2.2,1.8-3.9,3.9-3.9
		C43.8,407.3,45.5,409.1,45.5,411.2z"/>
	<path class="st6" d="M109.7,386.2c-14.3-23.7-16.3-48.5-4.6-55.6c11.7-7,32.7,6.4,47,30.1"/>
	<path class="st7" d="M152,360.7c3.1,5.1-3.9,14.9-15.6,22c-11.7,7-23.7,8.6-26.7,3.5c-3.1-5.1,3.9-14.9,15.6-22
		C137,357.2,148.9,355.6,152,360.7z"/>
	<path class="st5" d="M137.8,358.8c2.7,6.2,0.5,13.6-5.5,17.2c-6,3.6-13.5,2.1-17.7-3.2"/>
	<g>
		<path class="st8" d="M394.2,384.9c2.2,0,4,1.8,4,4V495c0,2.2-1.8,4-4,4H229.1c-2.2,0-4-1.8-4-4V388.9c0-2.2,1.8-4,4-4H394.2z"/>
		<path class="st3" d="M394.2,384.9c2.2,0,4,1.8,4,4V495c0,2.2-1.8,4-4,4H229.1c-2.2,0-4-1.8-4-4V388.9c0-2.2,1.8-4,4-4H394.2z"/>
	</g>
	<rect x="234.4" y="393.8" class="st9" width="154.5" height="89.5"/>
	<path class="st10" d="M215.1,505.3h193.1c5.1,0,9.3-5.8,9.3-12.9H205.8C205.8,499.6,210,505.3,215.1,505.3z"/>
	<rect x="293.4" y="492.5" class="st6" width="36.5" height="6.5"/>
	<path class="st3" d="M476.9,467.2L476.9,467.2c4.9,0,8.9,3.4,8.9,7.6v5.6c0,4.2-4,7.6-8.9,7.6"/>
	<path class="st6" d="M451.7,503.8h14c6.2,0,11.2-5,11.2-11.2v-10.9v-10.9v-11.2h-11.2h-14h-11.2v11.2v10.9v10.9
		C440.5,498.7,445.6,503.8,451.7,503.8z"/>
	<g>
		<path class="st3" d="M455.7,450.5c0-4.7,6-4.7,6-9.4c0-4.7-6-4.7-6-9.4c0-4.7,6-4.7,6-9.4"/>
	</g>
	<g>
		<g>
			<g>
				<path class="st11" d="M640.3,450.1c0-12,5.5-22.5,13.8-28.1c8.3,5.6,13.9,16.1,13.9,28.1c0,12-5.5,22.5-13.8,28.1
					C645.9,472.6,640.3,462.1,640.3,450.1z"/>
			</g>
			<g>
				<path class="st11" d="M635.1,458.6c-4.5-7.6-4.8-16.4-1.6-23.1c7.4,0.5,14.8,5.1,19.3,12.7c4.5,7.6,4.8,16.4,1.6,23.1
					C647.1,470.9,639.6,466.3,635.1,458.6z"/>
			</g>
			<path class="st11" d="M628.9,466c-4.5-6.3-5.6-13.9-3.3-20c6.5-0.2,13.4,3.2,17.9,9.5c4.5,6.3,5.6,13.9,3.3,20
				C640.4,475.7,633.5,472.3,628.9,466z"/>
			<g>
				<path class="st11" d="M673,458.6c4.5-7.6,4.8-16.4,1.6-23.1c-7.4,0.5-14.8,5.1-19.3,12.7c-4.5,7.6-4.8,16.4-1.6,23.1
					C661.1,470.9,668.6,466.3,673,458.6z"/>
			</g>
			<path class="st11" d="M679.2,466c4.5-6.3,5.6-13.9,3.3-20c-6.5-0.2-13.4,3.2-17.9,9.5c-4.5,6.3-5.6,13.9-3.3,20
				C667.8,475.7,674.7,472.3,679.2,466z"/>
			<g>
				<path class="st11" d="M643.1,465c0-9.6,4.4-17.9,11-22.4c6.6,4.5,11.1,12.8,11.1,22.4c0,9.6-4.4,17.9-11,22.4
					C647.5,483,643.1,474.6,643.1,465z"/>
			</g>
		</g>
		<polygon class="st12" points="632.3,476.3 675.9,476.3 672.4,506.6 635.8,506.6 		"/>
		<rect x="627.7" y="469.7" class="st12" width="52.8" height="10"/>
		<polygon class="st13" points="675.5,488.7 632.5,488.7 631.4,481.3 676.8,481.3 		"/>
	</g>
	<g>
		<rect x="36.4" y="174.1" class="st1" width="223.5" height="15.7"/>
		<rect x="142.3" y="116.4" class="st2" width="9.5" height="57.7"/>
		<rect x="55.1" y="104.9" class="st14" width="18.2" height="69.1"/>
		<rect x="73.3" y="116.4" class="st5" width="19" height="57.7"/>
		<rect x="119.9" y="110.1" class="st12" width="22.4" height="61.7"/>
		<rect x="55.1" y="139.5" class="st4" width="18.2" height="14.7"/>
		<rect x="92.3" y="104.9" class="st15" width="27.6" height="69.1"/>
		<rect x="92.3" y="120.2" class="st4" width="27.6" height="17.7"/>
		<path class="st3" d="M210.5,168.3V157c-18.3,0-33.2-14.9-33.2-33.2c0-18.3,14.8-33.2,33.2-33.2v8.7"/>
		<rect x="193.9" y="166.6" class="st4" width="34.3" height="6.1"/>
		<line class="st4" x1="210.5" y1="160.8" x2="210.5" y2="147.3"/>
		<ellipse class="st4" cx="131.1" cy="129.8" rx="6.6" ry="8.9"/>
		<circle class="st2" cx="212.3" cy="123.8" r="24.4"/>
		<path class="st4" d="M228.5,141.8c-2.4,2-5.2-3.5-6-6.2c-0.9-3,3.3-7.2,2.1-10c-2-4.6-6.9-2.4-10.8-4.6
			c-11.7-6.7-11.1-14.7,5.3-20.6c0,0,18.1,6.8,17.7,22.9C236.7,123.2,237.3,134.5,228.5,141.8z"/>
		<path class="st4" d="M199.8,142.1c6.9-11.7-2.6-17.4-11-25c0,0-5.1,17.7,10,27.1L199.8,142.1z"/>
	</g>
	<g>
		<rect x="286.9" y="713.7" class="st1" width="128.1" height="8.8"/>
		<polygon class="st0" points="304.9,669.2 287,669.2 267,770.3 278.2,770.3 		"/>
		<polygon class="st0" points="392.8,669.2 410.7,669.2 430.8,770.3 419.5,770.3 		"/>
		<rect x="286.9" y="655.5" class="st1" width="123.8" height="13.7"/>
		<polygon class="st0" points="352.6,784.3 342,784.3 338.1,669.2 357.4,669.2 		"/>
	</g>
	<g>
		<rect x="134.7" y="277.3" class="st1" width="257.3" height="15.7"/>
		
			<rect x="289.5" y="220.3" transform="matrix(0.9006 0.4346 -0.4346 0.9006 137.5215 -103.1345)" class="st2" width="9.5" height="57.7"/>
		<rect x="311.6" y="205.9" class="st14" width="18.2" height="69.1"/>
		<rect x="329.9" y="217.3" class="st5" width="19" height="57.7"/>
		<rect x="311.6" y="217.7" class="st4" width="18.2" height="14.7"/>
		<rect x="348.9" y="205.9" class="st15" width="27.6" height="69.1"/>
		<rect x="348.9" y="221.1" class="st4" width="27.6" height="8.8"/>
		<rect x="348.9" y="258.3" class="st4" width="27.6" height="8.8"/>
		<rect x="188.2" y="219" class="st6" width="46.8" height="7.7"/>
		<rect x="164.2" y="226.7" class="st6" width="91.7" height="50.6"/>
		<circle class="st16" cx="199.2" cy="250.6" r="25.2"/>
		<rect x="230.9" y="233.6" class="st12" width="18.7" height="8.2"/>
		<circle class="st4" cx="199.2" cy="250.6" r="19.9"/>
	</g>
	<g>
		<rect x="435.3" y="300.6" class="st4" width="118.8" height="77.3"/>
		<g>
			<line class="st4" x1="442.9" y1="304.9" x2="442.9" y2="295.1"/>
			<line class="st4" x1="451" y1="304.9" x2="451" y2="295.1"/>
			<line class="st4" x1="459" y1="304.9" x2="459" y2="295.1"/>
			<line class="st4" x1="467" y1="304.9" x2="467" y2="295.1"/>
			<line class="st4" x1="475.1" y1="304.9" x2="475.1" y2="295.1"/>
			<line class="st4" x1="483.1" y1="304.9" x2="483.1" y2="295.1"/>
			<line class="st4" x1="491.1" y1="304.9" x2="491.1" y2="295.1"/>
			<line class="st4" x1="499.1" y1="304.9" x2="499.1" y2="295.1"/>
			<line class="st4" x1="507.2" y1="304.9" x2="507.2" y2="295.1"/>
			<line class="st4" x1="515.2" y1="304.9" x2="515.2" y2="295.1"/>
			<line class="st4" x1="523.2" y1="304.9" x2="523.2" y2="295.1"/>
			<line class="st4" x1="531.3" y1="304.9" x2="531.3" y2="295.1"/>
			<line class="st4" x1="539.3" y1="304.9" x2="539.3" y2="295.1"/>
			<line class="st4" x1="547.3" y1="304.9" x2="547.3" y2="295.1"/>
		</g>
		<line class="st17" x1="457.2" y1="314.5" x2="457.2" y2="368.2"/>
		<line class="st17" x1="444" y1="327.9" x2="545.6" y2="327.9"/>
		<line class="st17" x1="444" y1="353.2" x2="545.6" y2="353.2"/>
		<line class="st17" x1="482.2" y1="314.5" x2="482.2" y2="368.2"/>
		<line class="st17" x1="507.2" y1="314.5" x2="507.2" y2="368.2"/>
		<line class="st17" x1="532.3" y1="314.5" x2="532.3" y2="368.2"/>
	</g>
	<path class="st12" d="M166.5,498.6c0,2.8-2.3,5.2-5.2,5.2h-13.9c-2.9,0-5.2-2.3-5.2-5.2v-32c0-2.9,2.3-5.2,5.2-5.2h13.9
		c2.8,0,5.2,2.3,5.2,5.2V498.6z"/>
	<g>
		<path class="st18" d="M151.6,455.7c-0.6,0-1.1-0.3-1.5-0.7c-0.4-0.4-0.5-1-0.5-1.6l1.6-11.1c0.1-1,1-1.7,2-1.7h2.3
			c1,0,1.8,0.7,2,1.7l1.6,11.1c0.1,0.6-0.1,1.2-0.5,1.6s-0.9,0.7-1.5,0.7H151.6z"/>
		<path class="st19" d="M155.6,442.6l1.6,11.1h-5.6l1.6-11.1H155.6 M155.6,438.6h-2.3c-2,0-3.7,1.5-4,3.4l-1.6,11.1
			c-0.2,1.2,0.2,2.3,0.9,3.2c0.8,0.9,1.9,1.4,3,1.4h5.6c1.2,0,2.3-0.5,3-1.4c0.8-0.9,1.1-2,0.9-3.2l-1.6-11.1
			C159.2,440.1,157.5,438.6,155.6,438.6L155.6,438.6z"/>
	</g>
	<g>
		<rect x="147.6" y="470.9" class="st20" width="13.6" height="8.6"/>
		<path class="st19" d="M159.2,472.9v4.6h-9.6v-4.6H159.2 M163.2,468.9h-17.6v12.6h17.6V468.9L163.2,468.9z"/>
	</g>
	<rect x="147" y="453.7" class="st9" width="14.8" height="7.8"/>
</g>
</svg>
