<?xml version="1.0" encoding="utf-8"?>
<!-- Generator: Adobe Illustrator 19.1.0, SVG Export Plug-In . SVG Version: 6.00 Build 0)  -->
<svg version="1.1" xmlns="http://www.w3.org/2000/svg" xmlns:xlink="http://www.w3.org/1999/xlink" x="0px" y="0px"
	 viewBox="0 0 587 475" style="enable-background:new 0 0 587 475;" xml:space="preserve">
<style type="text/css">
	.st0{fill:#FFFFFF;}
	.st1{fill:#E6E7E8;}
	.st2{fill:#103754;}
	.st3{fill:#0E303F;}
	.st4{fill:#929292;}
	.st5{fill:#1C0F52;}
	.st6{fill:#311B92;}
	.st7{fill:#CEC8E5;}
	.st8{fill:#CCCCCC;}
	.st9{fill:#DDDDDD;}
	.st10{fill:#BCBEC0;}
	.st11{fill:#391A06;}
	.st12{fill:#502A14;}
	.st13{fill:#F9BB88;}
	.st14{fill:#1C75BC;}
	.st15{fill:#424244;}
	.st16{fill:#FFEB3B;}
	.st17{fill:#80761E;}
	.st18{fill:#BFB02C;}
	.st19{fill:#353F49;}
	.st20{fill:#F1F2F2;}
	.st21{opacity:0.6;fill:#FFFFFF;}
	.st22{fill:#2C465F;}
	.st23{fill:#39B54A;}
	.st24{fill:#EE2A7B;}
	.st25{opacity:0.7;fill:#DA1C5C;}
	.st26{fill:#27AAE1;}
	.st27{opacity:0.7;fill:#662D91;}
	.st28{opacity:0.7;fill:#1C75BC;}
	.st29{fill:#F0B16C;}
	.st30{fill:#C62229;}
	.st31{fill:#F85A68;}
</style>
<g id="Background">
</g>
<g id="Objects">
	<g>
		<g id="mouse_computer">
			<g>
				<path class="st0" d="M323.8,248h166.3c3.6,0,6.5,2.9,6.5,6.5c0,3.6-2.9,6.5-6.5,6.5h-33.4c-3.6,0-6.5,2.9-6.5,6.5
					c0,3.6,0,37.5,0,37.5h2.8c0,0,0-35.5,0-37.5s1.7-3.7,3.7-3.7h33.4c5.1,0,9.3-4.2,9.3-9.3c0-5.1-4.2-9.3-9.3-9.3l-166.3,0"/>
			</g>
			<g>
				<path class="st0" d="M454.8,302.5c7.1,0,12.9,5.8,12.9,12.9v30.9c0,7.1-5.8,12.9-12.9,12.9h-3.4v-56.7H454.8z"/>
				<path class="st1" d="M448,302.5h3.4v56.7H448c-7.1,0-12.9-5.8-12.9-12.9v-30.9C435.1,308.3,440.9,302.5,448,302.5z"/>
			</g>
			<g>
				<path class="st2" d="M455.7,316.2v2.8c0,2.4-1.9,4.3-4.3,4.3v-11.4C453.8,311.9,455.7,313.9,455.7,316.2z"/>
				<path class="st3" d="M451.4,311.9L451.4,311.9v11.4l0,0c-2.4,0-4.3-1.9-4.3-4.3v-2.8C447.1,313.9,449,311.9,451.4,311.9z"/>
			</g>
		</g>
		<path class="st4" d="M247,208.5c-2.8,11.4-5.6,22.8-8.4,34.1c26,0,52,0,77.9,0c-2.8-11.4-5.6-22.8-8.4-34.1
			C287.9,208.5,267.4,208.5,247,208.5z"/>
		<path class="st0" d="M321.4,242h-87.6c-2.2,0-4,2.1-4,4.7v1.8h95.6v-1.8C325.5,244.1,323.7,242,321.4,242z"/>
		<path class="st0" d="M146,195.2V214c0,3.6,2.9,6.6,6.6,6.6h250.3c3.6,0,6.6-2.9,6.6-6.6v-18.8H146z"/>
		<path class="st5" d="M409.3,195.2V35.8c0-3.6-2.9-6.6-6.6-6.6H152.5c-3.6,0-6.6,2.9-6.6,6.6v159.3H409.3z"/>
		<rect x="156.7" y="39.5" class="st1" width="241.8" height="144.8"/>
		<rect x="156.7" y="39.5" class="st6" width="241.8" height="26"/>
		<rect x="156.7" y="65.6" class="st7" width="241.8" height="55.1"/>
		<g>
			<g>
				<g>
					<rect x="184.7" y="125.3" class="st5" width="55.4" height="33.2"/>
					<rect x="184.7" y="161.8" class="st5" width="55.4" height="2.6"/>
					<rect x="184.7" y="167.1" class="st5" width="55.4" height="2.6"/>
					<rect x="184.7" y="172.4" class="st5" width="55.4" height="2.6"/>
					<rect x="184.7" y="177.7" class="st5" width="38" height="2.6"/>
				</g>
				<g>
					<rect x="250" y="125.3" class="st5" width="55.4" height="33.2"/>
					<rect x="250" y="161.8" class="st5" width="55.6" height="2.6"/>
					<rect x="250" y="167.1" class="st5" width="55.6" height="2.6"/>
					<rect x="250" y="172.4" class="st5" width="55.6" height="2.6"/>
					<rect x="250" y="177.7" class="st5" width="55.6" height="2.6"/>
				</g>
				<g>
					<rect x="315.3" y="125.3" class="st5" width="55.4" height="33.2"/>
					<rect x="315.3" y="161.8" class="st5" width="55.4" height="2.6"/>
					<rect x="315.3" y="167.1" class="st5" width="55.4" height="2.6"/>
					<rect x="315.3" y="172.4" class="st5" width="55.4" height="2.6"/>
					<rect x="315.3" y="177.7" class="st5" width="15.8" height="2.6"/>
				</g>
			</g>
		</g>
		<circle class="st1" cx="194.2" cy="52.5" r="9.5"/>
		<g>
			<rect x="347.4" y="45.8" class="st1" width="23.3" height="8.9"/>
			<rect x="319.4" y="45.8" class="st1" width="23.3" height="8.9"/>
			<rect x="291.4" y="45.8" class="st1" width="23.3" height="8.9"/>
			<rect x="263.4" y="45.8" class="st1" width="23.3" height="8.9"/>
		</g>
		<g id="keyboard">
			<path class="st0" d="M401.5,274c0-1.6-1.4-3-3.2-3H157c-1.8,0-3.2,1.4-3.2,3v88.7c0,1.6,1.4,3,3.2,3h241.3c1.8,0,3.2-1.4,3.2-3
				V274z"/>
			<g>
				<path class="st8" d="M173.5,291.4c0,0.4-0.4,0.8-0.8,0.8h-11.9c-0.4,0-0.8-0.3-0.8-0.8v-11.9c0-0.4,0.3-0.8,0.8-0.8h11.9
					c0.4,0,0.8,0.3,0.8,0.8V291.4z"/>
				<path class="st8" d="M198.2,307.8c0,0.4-0.3,0.8-0.8,0.8h-11.9c-0.4,0-0.8-0.4-0.8-0.8v-11.9c0-0.4,0.3-0.8,0.8-0.8h11.9
					c0.4,0,0.8,0.4,0.8,0.8V307.8z"/>
				<path class="st8" d="M202.1,324.3c0,0.4-0.4,0.8-0.8,0.8h-11.9c-0.4,0-0.8-0.3-0.8-0.8v-11.9c0-0.4,0.4-0.8,0.8-0.8h11.9
					c0.4,0,0.8,0.4,0.8,0.8V324.3z"/>
				<path class="st8" d="M194,340.7c0,0.4-0.3,0.8-0.8,0.8h-11.9c-0.4,0-0.8-0.4-0.8-0.8v-11.9c0-0.4,0.4-0.8,0.8-0.8h11.9
					c0.4,0,0.8,0.4,0.8,0.8V340.7z"/>
				<path class="st8" d="M173.5,359.2c0,0.4-0.4,0.8-0.8,0.8h-11.9c-0.4,0-0.8-0.3-0.8-0.8v-14c0-0.4,0.3-0.8,0.8-0.8h11.9
					c0.4,0,0.8,0.4,0.8,0.8V359.2z"/>
				<path class="st8" d="M189.8,359.2c0,0.4-0.3,0.8-0.8,0.8h-11.9c-0.4,0-0.8-0.3-0.8-0.8v-14c0-0.4,0.4-0.8,0.8-0.8h11.9
					c0.4,0,0.8,0.4,0.8,0.8V359.2z"/>
				<path class="st8" d="M206.2,359.2c0,0.4-0.4,0.8-0.8,0.8h-11.9c-0.4,0-0.8-0.3-0.8-0.8v-14c0-0.4,0.3-0.8,0.8-0.8h11.9
					c0.4,0,0.8,0.4,0.8,0.8V359.2z"/>
				<path class="st8" d="M346.1,359.2c0,0.4-0.4,0.8-0.8,0.8h-11.9c-0.4,0-0.8-0.3-0.8-0.8v-14c0-0.4,0.3-0.8,0.8-0.8h11.9
					c0.4,0,0.8,0.4,0.8,0.8V359.2z"/>
				<path class="st8" d="M362.5,359.2c0,0.4-0.3,0.8-0.8,0.8h-11.9c-0.4,0-0.8-0.3-0.8-0.8v-6.2c0-0.4,0.4-0.8,0.8-0.8h11.9
					c0.4,0,0.8,0.4,0.8,0.8V359.2z"/>
				<path class="st8" d="M395.3,359.2c0,0.4-0.4,0.8-0.8,0.8h-11.9c-0.4,0-0.8-0.3-0.8-0.8v-6.2c0-0.4,0.4-0.8,0.8-0.8h11.9
					c0.4,0,0.8,0.4,0.8,0.8V359.2z"/>
				<path class="st8" d="M226.9,359.2c0,0.4-0.3,0.8-0.8,0.8h-16.2c-0.4,0-0.8-0.3-0.8-0.8v-14c0-0.4,0.3-0.8,0.8-0.8h16.2
					c0.4,0,0.8,0.4,0.8,0.8V359.2z"/>
				<path class="st8" d="M329.6,359.2c0,0.4-0.3,0.8-0.8,0.8h-16.2c-0.4,0-0.8-0.3-0.8-0.8v-14c0-0.4,0.4-0.8,0.8-0.8h16.2
					c0.4,0,0.8,0.4,0.8,0.8V359.2z"/>
				<path class="st8" d="M308.9,359.2c0,0.4-0.4,0.8-0.8,0.8h-77.6c-0.4,0-0.8-0.3-0.8-0.8v-14c0-0.4,0.4-0.8,0.8-0.8h77.6
					c0.4,0,0.8,0.4,0.8,0.8V359.2z"/>
				<path class="st8" d="M210.4,340.7c0,0.4-0.3,0.8-0.8,0.8h-11.9c-0.4,0-0.8-0.4-0.8-0.8v-11.9c0-0.4,0.4-0.8,0.8-0.8h11.9
					c0.4,0,0.8,0.4,0.8,0.8V340.7z"/>
				<path class="st8" d="M226.9,340.7c0,0.4-0.3,0.8-0.8,0.8h-11.9c-0.4,0-0.8-0.4-0.8-0.8v-11.9c0-0.4,0.3-0.8,0.8-0.8h11.9
					c0.4,0,0.8,0.4,0.8,0.8V340.7z"/>
				<path class="st8" d="M243.3,340.7c0,0.4-0.3,0.8-0.8,0.8h-11.9c-0.4,0-0.8-0.4-0.8-0.8v-11.9c0-0.4,0.4-0.8,0.8-0.8h11.9
					c0.4,0,0.8,0.4,0.8,0.8V340.7z"/>
				<path class="st8" d="M259.7,340.7c0,0.4-0.4,0.8-0.8,0.8H247c-0.4,0-0.8-0.4-0.8-0.8v-11.9c0-0.4,0.4-0.8,0.8-0.8h11.9
					c0.4,0,0.8,0.4,0.8,0.8V340.7z"/>
				<path class="st8" d="M276.1,340.7c0,0.4-0.4,0.8-0.8,0.8h-11.9c-0.4,0-0.8-0.4-0.8-0.8v-11.9c0-0.4,0.3-0.8,0.8-0.8h11.9
					c0.4,0,0.8,0.4,0.8,0.8V340.7z"/>
				<path class="st8" d="M292.5,340.7c0,0.4-0.3,0.8-0.8,0.8h-11.9c-0.4,0-0.8-0.4-0.8-0.8v-11.9c0-0.4,0.3-0.8,0.8-0.8h11.9
					c0.4,0,0.8,0.4,0.8,0.8V340.7z"/>
				<path class="st8" d="M308.9,340.7c0,0.4-0.4,0.8-0.8,0.8h-11.9c-0.4,0-0.8-0.4-0.8-0.8v-11.9c0-0.4,0.3-0.8,0.8-0.8h11.9
					c0.4,0,0.8,0.4,0.8,0.8V340.7z"/>
				<path class="st8" d="M325.4,340.7c0,0.4-0.4,0.8-0.8,0.8h-11.9c-0.4,0-0.8-0.4-0.8-0.8v-11.9c0-0.4,0.4-0.8,0.8-0.8h11.9
					c0.4,0,0.8,0.4,0.8,0.8V340.7z"/>
				<path class="st8" d="M341.8,340.7c0,0.4-0.3,0.8-0.8,0.8h-11.9c-0.4,0-0.8-0.4-0.8-0.8v-11.9c0-0.4,0.3-0.8,0.8-0.8H341
					c0.4,0,0.8,0.4,0.8,0.8V340.7z"/>
				<path class="st8" d="M358.2,340.7c0,0.4-0.4,0.8-0.8,0.8h-11.9c-0.4,0-0.8-0.4-0.8-0.8v-11.9c0-0.4,0.4-0.8,0.8-0.8h11.9
					c0.4,0,0.8,0.4,0.8,0.8V340.7z"/>
				<path class="st8" d="M395.2,340.7c0,0.4-0.3,0.8-0.8,0.8h-32.5c-0.4,0-0.8-0.4-0.8-0.8v-11.9c0-0.4,0.4-0.8,0.8-0.8h32.5
					c0.4,0,0.8,0.4,0.8,0.8V340.7z"/>
				<path class="st8" d="M218.5,324.3c0,0.4-0.3,0.8-0.8,0.8h-11.9c-0.4,0-0.8-0.3-0.8-0.8v-11.9c0-0.4,0.3-0.8,0.8-0.8h11.9
					c0.4,0,0.8,0.4,0.8,0.8V324.3z"/>
				<path class="st8" d="M234.9,324.3c0,0.4-0.4,0.8-0.8,0.8h-11.9c-0.4,0-0.8-0.3-0.8-0.8v-11.9c0-0.4,0.3-0.8,0.8-0.8h11.9
					c0.4,0,0.8,0.4,0.8,0.8V324.3z"/>
				<path class="st8" d="M251.3,324.3c0,0.4-0.3,0.8-0.8,0.8h-11.9c-0.4,0-0.8-0.3-0.8-0.8v-11.9c0-0.4,0.3-0.8,0.8-0.8h11.9
					c0.4,0,0.8,0.4,0.8,0.8V324.3z"/>
				<path class="st8" d="M267.7,324.3c0,0.4-0.4,0.8-0.8,0.8H255c-0.4,0-0.8-0.3-0.8-0.8v-11.9c0-0.4,0.3-0.8,0.8-0.8H267
					c0.4,0,0.8,0.4,0.8,0.8V324.3z"/>
				<path class="st8" d="M284.1,324.3c0,0.4-0.4,0.8-0.8,0.8h-11.9c-0.4,0-0.8-0.3-0.8-0.8v-11.9c0-0.4,0.4-0.8,0.8-0.8h11.9
					c0.4,0,0.8,0.4,0.8,0.8V324.3z"/>
				<path class="st8" d="M300.6,324.3c0,0.4-0.3,0.8-0.8,0.8h-11.9c-0.4,0-0.8-0.3-0.8-0.8v-11.9c0-0.4,0.3-0.8,0.8-0.8h11.9
					c0.4,0,0.8,0.4,0.8,0.8V324.3z"/>
				<path class="st8" d="M317,324.3c0,0.4-0.3,0.8-0.8,0.8h-11.9c-0.4,0-0.8-0.3-0.8-0.8v-11.9c0-0.4,0.3-0.8,0.8-0.8h11.9
					c0.4,0,0.8,0.4,0.8,0.8V324.3z"/>
				<path class="st8" d="M333.4,324.3c0,0.4-0.4,0.8-0.8,0.8h-11.9c-0.4,0-0.8-0.3-0.8-0.8v-11.9c0-0.4,0.3-0.8,0.8-0.8h11.9
					c0.4,0,0.8,0.4,0.8,0.8V324.3z"/>
				<path class="st8" d="M349.8,324.3c0,0.4-0.4,0.8-0.8,0.8h-11.9c-0.4,0-0.8-0.3-0.8-0.8v-11.9c0-0.4,0.3-0.8,0.8-0.8H349
					c0.4,0,0.8,0.4,0.8,0.8V324.3z"/>
				<path class="st8" d="M366.2,324.3c0,0.4-0.3,0.8-0.8,0.8h-11.9c-0.4,0-0.8-0.3-0.8-0.8v-11.9c0-0.4,0.3-0.8,0.8-0.8h11.9
					c0.4,0,0.8,0.4,0.8,0.8V324.3z"/>
				<path class="st8" d="M382.6,324.3c0,0.4-0.3,0.8-0.8,0.8h-11.9c-0.4,0-0.8-0.3-0.8-0.8v-11.9c0-0.4,0.3-0.8,0.8-0.8h11.9
					c0.4,0,0.8,0.4,0.8,0.8V324.3z"/>
				<path class="st8" d="M214.6,307.8c0,0.4-0.4,0.8-0.8,0.8h-11.9c-0.4,0-0.8-0.4-0.8-0.8v-11.9c0-0.4,0.4-0.8,0.8-0.8h11.9
					c0.4,0,0.8,0.4,0.8,0.8V307.8z"/>
				<path class="st8" d="M231,307.8c0,0.4-0.3,0.8-0.8,0.8h-11.9c-0.4,0-0.8-0.4-0.8-0.8v-11.9c0-0.4,0.3-0.8,0.8-0.8h11.9
					c0.4,0,0.8,0.4,0.8,0.8V307.8z"/>
				<path class="st8" d="M247.4,307.8c0,0.4-0.3,0.8-0.8,0.8h-11.9c-0.4,0-0.8-0.4-0.8-0.8v-11.9c0-0.4,0.3-0.8,0.8-0.8h11.9
					c0.4,0,0.8,0.4,0.8,0.8V307.8z"/>
				<path class="st8" d="M263.8,307.8c0,0.4-0.4,0.8-0.8,0.8h-11.9c-0.4,0-0.8-0.4-0.8-0.8v-11.9c0-0.4,0.4-0.8,0.8-0.8h11.9
					c0.4,0,0.8,0.4,0.8,0.8V307.8z"/>
				<path class="st8" d="M280.3,307.8c0,0.4-0.3,0.8-0.8,0.8h-11.9c-0.4,0-0.8-0.4-0.8-0.8v-11.9c0-0.4,0.3-0.8,0.8-0.8h11.9
					c0.4,0,0.8,0.4,0.8,0.8V307.8z"/>
				<path class="st8" d="M296.7,307.8c0,0.4-0.3,0.8-0.8,0.8H284c-0.4,0-0.8-0.4-0.8-0.8v-11.9c0-0.4,0.3-0.8,0.8-0.8h11.9
					c0.4,0,0.8,0.4,0.8,0.8V307.8z"/>
				<path class="st8" d="M313.1,307.8c0,0.4-0.3,0.8-0.8,0.8h-11.9c-0.4,0-0.8-0.4-0.8-0.8v-11.9c0-0.4,0.3-0.8,0.8-0.8h11.9
					c0.4,0,0.8,0.4,0.8,0.8V307.8z"/>
				<path class="st8" d="M329.5,307.8c0,0.4-0.3,0.8-0.8,0.8h-11.9c-0.4,0-0.8-0.4-0.8-0.8v-11.9c0-0.4,0.3-0.8,0.8-0.8h11.9
					c0.4,0,0.8,0.4,0.8,0.8V307.8z"/>
				<path class="st8" d="M345.9,307.8c0,0.4-0.3,0.8-0.8,0.8h-11.9c-0.4,0-0.8-0.4-0.8-0.8v-11.9c0-0.4,0.3-0.8,0.8-0.8h11.9
					c0.4,0,0.8,0.4,0.8,0.8V307.8z"/>
				<path class="st8" d="M362.3,307.8c0,0.4-0.3,0.8-0.8,0.8h-11.9c-0.4,0-0.8-0.4-0.8-0.8v-11.9c0-0.4,0.4-0.8,0.8-0.8h11.9
					c0.4,0,0.8,0.4,0.8,0.8V307.8z"/>
				<path class="st8" d="M378.7,307.8c0,0.4-0.3,0.8-0.8,0.8h-11.9c-0.4,0-0.8-0.4-0.8-0.8v-11.9c0-0.4,0.3-0.8,0.8-0.8H378
					c0.4,0,0.8,0.4,0.8,0.8V307.8z"/>
				<path class="st8" d="M181.8,307.8c0,0.4-0.3,0.8-0.8,0.8h-20.2c-0.4,0-0.8-0.4-0.8-0.8v-11.9c0-0.4,0.3-0.8,0.8-0.8H181
					c0.4,0,0.8,0.4,0.8,0.8V307.8z"/>
				<path class="st8" d="M395.2,291.4c0,0.4-0.3,0.8-0.8,0.8h-20.2c-0.4,0-0.8-0.3-0.8-0.8v-11.9c0-0.4,0.4-0.8,0.8-0.8h20.2
					c0.4,0,0.8,0.3,0.8,0.8V291.4z"/>
				<path class="st8" d="M185.6,324.3c0,0.4-0.3,0.8-0.8,0.8h-24.1c-0.4,0-0.8-0.3-0.8-0.8v-11.9c0-0.4,0.3-0.8,0.8-0.8h24.1
					c0.4,0,0.8,0.4,0.8,0.8V324.3z"/>
				<path class="st8" d="M177.6,340.7c0,0.4-0.3,0.8-0.8,0.8h-16.1c-0.4,0-0.8-0.4-0.8-0.8v-11.9c0-0.4,0.3-0.8,0.8-0.8h16.1
					c0.4,0,0.8,0.4,0.8,0.8V340.7z"/>
				<path class="st8" d="M189.9,291.4c0,0.4-0.3,0.8-0.8,0.8h-11.9c-0.4,0-0.8-0.3-0.8-0.8v-11.9c0-0.4,0.4-0.8,0.8-0.8h11.9
					c0.4,0,0.8,0.3,0.8,0.8V291.4z"/>
				<path class="st8" d="M206.3,291.4c0,0.4-0.3,0.8-0.8,0.8h-11.9c-0.4,0-0.8-0.3-0.8-0.8v-11.9c0-0.4,0.3-0.8,0.8-0.8h11.9
					c0.4,0,0.8,0.3,0.8,0.8V291.4z"/>
				<path class="st8" d="M222.7,291.4c0,0.4-0.4,0.8-0.8,0.8H210c-0.4,0-0.8-0.3-0.8-0.8v-11.9c0-0.4,0.3-0.8,0.8-0.8h11.9
					c0.4,0,0.8,0.3,0.8,0.8V291.4z"/>
				<path class="st8" d="M239.1,291.4c0,0.4-0.4,0.8-0.8,0.8h-11.9c-0.4,0-0.8-0.3-0.8-0.8v-11.9c0-0.4,0.4-0.8,0.8-0.8h11.9
					c0.4,0,0.8,0.3,0.8,0.8V291.4z"/>
				<path class="st8" d="M255.5,291.4c0,0.4-0.3,0.8-0.8,0.8h-11.9c-0.4,0-0.8-0.3-0.8-0.8v-11.9c0-0.4,0.3-0.8,0.8-0.8h11.9
					c0.4,0,0.8,0.3,0.8,0.8V291.4z"/>
				<path class="st8" d="M272,291.4c0,0.4-0.4,0.8-0.8,0.8h-11.9c-0.4,0-0.8-0.3-0.8-0.8v-11.9c0-0.4,0.3-0.8,0.8-0.8h11.9
					c0.4,0,0.8,0.3,0.8,0.8V291.4z"/>
				<path class="st8" d="M288.4,291.4c0,0.4-0.3,0.8-0.8,0.8h-11.9c-0.4,0-0.8-0.3-0.8-0.8v-11.9c0-0.4,0.3-0.8,0.8-0.8h11.9
					c0.4,0,0.8,0.3,0.8,0.8V291.4z"/>
				<path class="st8" d="M304.8,291.4c0,0.4-0.3,0.8-0.8,0.8h-11.9c-0.4,0-0.8-0.3-0.8-0.8v-11.9c0-0.4,0.3-0.8,0.8-0.8H304
					c0.4,0,0.8,0.3,0.8,0.8V291.4z"/>
				<path class="st8" d="M321.2,291.4c0,0.4-0.3,0.8-0.8,0.8h-11.9c-0.4,0-0.8-0.3-0.8-0.8v-11.9c0-0.4,0.3-0.8,0.8-0.8h11.9
					c0.4,0,0.8,0.3,0.8,0.8V291.4z"/>
				<path class="st8" d="M337.6,291.4c0,0.4-0.4,0.8-0.8,0.8h-11.9c-0.4,0-0.8-0.3-0.8-0.8v-11.9c0-0.4,0.3-0.8,0.8-0.8h11.9
					c0.4,0,0.8,0.3,0.8,0.8V291.4z"/>
				<path class="st8" d="M354,291.4c0,0.4-0.3,0.8-0.8,0.8h-11.9c-0.4,0-0.8-0.3-0.8-0.8v-11.9c0-0.4,0.4-0.8,0.8-0.8h11.9
					c0.4,0,0.8,0.3,0.8,0.8V291.4z"/>
				<path class="st8" d="M370.5,291.4c0,0.4-0.3,0.8-0.8,0.8h-11.9c-0.4,0-0.8-0.3-0.8-0.8v-11.9c0-0.4,0.3-0.8,0.8-0.8h11.9
					c0.4,0,0.8,0.3,0.8,0.8V291.4z"/>
				<g>
					<path class="st8" d="M365.4,352.6v6.6c0,0.2,0.1,0.4,0.2,0.6c0.2,0.2,0.4,0.2,0.6,0.2h11.9c0.2,0,0.4-0.1,0.5-0.2
						c0.2-0.1,0.2-0.3,0.2-0.6v-6.6H365.4z"/>
					<path class="st8" d="M378.9,351.7v-6.6c0-0.2-0.1-0.4-0.2-0.5c-0.2-0.2-0.4-0.2-0.5-0.2h-11.9c-0.2,0-0.4,0.1-0.6,0.2
						c-0.1,0.1-0.2,0.4-0.2,0.5v6.6H378.9z"/>
				</g>
				<path class="st8" d="M382.5,295.1c-0.2,0-0.4,0.1-0.5,0.2c-0.2,0.2-0.2,0.3-0.2,0.5v11.9c0,0.2,0.1,0.4,0.2,0.6
					c0.2,0.1,0.4,0.2,0.5,0.2h3.1v15.6c0,0.2,0.1,0.4,0.2,0.6c0.2,0.2,0.3,0.2,0.6,0.2h8c0.2,0,0.4-0.1,0.6-0.2
					c0.2-0.1,0.2-0.3,0.2-0.6v-28.3c0-0.2-0.1-0.4-0.2-0.5c-0.2-0.2-0.4-0.2-0.6-0.2H382.5z"/>
			</g>
		</g>
		<g id="coffee">
			<path class="st9" d="M102.4,190.6c0,19.1-15.5,34.6-34.6,34.6c-19.1,0-34.6-15.5-34.6-34.6S48.7,156,67.8,156
				C86.9,156,102.4,171.5,102.4,190.6z"/>
			<path class="st0" d="M103.5,200.3c-0.3,0.9-0.9,1.8-1.8,2.3c-0.9,0.5-1.9,0.6-2.8,0.4l-10.8-3l2-7.2l10.8,3
				c0.9,0.2,1.8,0.9,2.3,1.8C103.6,198.4,103.7,199.4,103.5,200.3z"/>
			<path class="st10" d="M90,192.8l-2,7.2l4,1.1c1-2.3,1.7-4.7,2-7.2L90,192.8z"/>
			<path class="st0" d="M91.2,190.6c0,12.9-10.5,23.4-23.4,23.4c-12.9,0-23.4-10.5-23.4-23.4c0-12.9,10.5-23.4,23.4-23.4
				C80.7,167.2,91.2,177.7,91.2,190.6z"/>
			<circle class="st11" cx="67.8" cy="190.6" r="19.6"/>
			<path class="st12" d="M53.8,196.2c0-10.8,8.8-19.6,19.6-19.6c4,0,7.7,1.2,10.8,3.2c-3.5-5.3-9.5-8.8-16.4-8.8
				c-10.8,0-19.6,8.8-19.6,19.6c0,6.9,3.5,12.9,8.8,16.4C55,203.9,53.8,200.2,53.8,196.2z"/>
		</g>
		<g>
			<path class="st13" d="M201.1,308.1c-2.9,0-5.3,2.4-5.3,5.3l0,39.2c0,2.9,2.4,5.3,5.3,5.3l0,0c2.9,0,5.3-2.4,5.3-5.3l0-39.2
				C206.5,310.5,204.1,308.1,201.1,308.1L201.1,308.1z"/>
			<path class="st13" d="M219.8,379.8c0,7.6-6.2,13.8-13.8,13.8l-22.5,0c-7.6,0-13.8-6.2-13.8-13.8l0-22.5c0-7.6,6.2-13.8,13.8-13.8
				l22.5,0c7.6,0,13.8,6.2,13.8,13.8L219.8,379.8z"/>
			<path class="st13" d="M174.9,325.6c-2.9,0-5.3,2.4-5.3,5.3l0,25.1c0,2.9,2.4,5.3,5.3,5.3l0,0c2.9,0,5.3-2.4,5.3-5.3l0-25.1
				C180.2,328,177.8,325.6,174.9,325.6L174.9,325.6z"/>
			<path class="st13" d="M187.9,315.2c-2.9,0-5.3,2.4-5.3,5.3l0,39.2c0,2.9,2.4,5.3,5.3,5.3l0,0c2.9,0,5.3-2.4,5.3-5.3l0-39.2
				C193.3,317.6,190.9,315.2,187.9,315.2L187.9,315.2z"/>
			<path class="st13" d="M214.4,313.2c-2.9,0-5.3,2.4-5.3,5.3l0,39.2c0,2.9,2.4,5.3,5.3,5.3l0,0c2.9,0,5.3-2.4,5.3-5.3l0-39.2
				C219.7,315.6,217.3,313.2,214.4,313.2L214.4,313.2z"/>
			<path class="st13" d="M175.2,426.8l0-51.1c0-5.2,4.2-9.4,9.4-9.4l15.2,0c5.2,0,9.4,4.2,9.4,9.4l0,51.1L175.2,426.8z"/>
			<path class="st13" d="M222.2,377.8l0-20.3c0-4.3,3.5-7.9,7.9-7.9l2.6,0c0.1,0,0.2,0,0.3,0l0,17.3L222.2,377.8z"/>
			<path class="st13" d="M215.4,374.9l13.2-13.2c1.2-1.2,2.8-2,4.4-2.2l0,13.1l-17.6,17.6L215.4,374.9z"/>
		</g>
		<rect x="174.1" y="400.7" class="st0" width="35.1" height="17.5"/>
		<rect x="172.7" y="424.8" class="st5" width="39" height="50.2"/>
		<rect x="171.5" y="407" class="st14" width="41.2" height="26.1"/>
		<circle class="st15" cx="207.4" cy="413.2" r="1.7"/>
		<g>
			<path class="st13" d="M440.5,309.6c2.9,0,5.3,2.4,5.3,5.3l0,39.2c0,2.9-2.4,5.3-5.3,5.3l0,0c-2.9,0-5.3-2.4-5.3-5.3l0-39.2
				C435.2,312,437.6,309.6,440.5,309.6L440.5,309.6z"/>
			<path class="st13" d="M421.9,381.2c0,7.6,6.2,13.8,13.8,13.8l22.5,0c7.6,0,13.8-6.2,13.8-13.8l0-22.5c0-7.6-6.2-13.8-13.8-13.8
				l-22.5,0c-7.6,0-13.8,6.2-13.8,13.8L421.9,381.2z"/>
			<path class="st13" d="M466.8,327.1c2.9,0,5.3,2.4,5.3,5.3l0,25.1c0,2.9-2.4,5.3-5.3,5.3l0,0c-2.9,0-5.3-2.4-5.3-5.3l0-25.1
				C461.4,329.5,463.8,327.1,466.8,327.1L466.8,327.1z"/>
			<path class="st13" d="M453.7,316.6c2.9,0,5.3,2.4,5.3,5.3l0,39.2c0,2.9-2.4,5.3-5.3,5.3l0,0c-2.9,0-5.3-2.4-5.3-5.3l0-39.2
				C448.4,319,450.8,316.6,453.7,316.6L453.7,316.6z"/>
			<path class="st13" d="M427.3,314.7c2.9,0,5.3,2.4,5.3,5.3l0,39.2c0,2.9-2.4,5.3-5.3,5.3l0,0c-2.9,0-5.3-2.4-5.3-5.3l0-39.2
				C422,317.1,424.4,314.7,427.3,314.7L427.3,314.7z"/>
			<path class="st13" d="M466.4,428.2l0-51.1c0-5.2-4.2-9.4-9.4-9.4l-15.2,0c-5.2,0-9.4,4.2-9.4,9.4l0,51.1L466.4,428.2z"/>
			<path class="st13" d="M419.5,379.2l0-20.3c0-4.3-3.5-7.9-7.9-7.9l-2.6,0c-0.1,0-0.2,0-0.3,0l0,17.3L419.5,379.2z"/>
			<path class="st13" d="M426.2,376.3L413,363.1c-1.2-1.2-2.8-2-4.4-2.2l0,13.1l17.6,17.6L426.2,376.3z"/>
		</g>
		<rect x="432.4" y="402.1" class="st0" width="35.1" height="17.5"/>
		<rect x="429.9" y="426.3" class="st5" width="39" height="48.7"/>
		<rect x="428.9" y="408.5" class="st14" width="41.2" height="26.1"/>
		<circle class="st15" cx="434.3" cy="414.7" r="1.7"/>
		<rect x="440.6" y="64" class="st0" width="86.8" height="125.4"/>
		<rect x="443.6" y="44.5" class="st16" width="111" height="12.5"/>
		<circle class="st17" cx="446.5" cy="51.7" r="1.3"/>
		<path class="st18" d="M443.6,44.5v7.3h1.7c0-0.1,0-0.1,0-0.2c0-0.7,0.6-1.3,1.3-1.3c0.7,0,1.3,0.6,1.3,1.3c0,0.1,0,0.1,0,0.2
			h106.8v-7.3H443.6z"/>
		<g>
			<g>
				<g>
					<rect x="445.3" y="44.5" class="st19" width="0.3" height="2.2"/>
					<rect x="448.9" y="44.5" class="st19" width="0.3" height="2.2"/>
					<rect x="452.4" y="44.5" class="st19" width="0.3" height="2.2"/>
					<rect x="456" y="44.5" class="st19" width="0.3" height="2.2"/>
					<rect x="459.6" y="44.5" class="st19" width="0.3" height="2.2"/>
					<rect x="463.2" y="44.5" class="st19" width="0.3" height="2.2"/>
					<rect x="466.8" y="44.5" class="st19" width="0.3" height="2.2"/>
					<rect x="470.3" y="44.5" class="st19" width="0.3" height="2.2"/>
					<rect x="473.9" y="44.5" class="st19" width="0.3" height="2.2"/>
					<rect x="477.5" y="44.5" class="st19" width="0.3" height="2.2"/>
					<rect x="481.1" y="44.5" class="st19" width="0.3" height="2.2"/>
					<rect x="484.7" y="44.5" class="st19" width="0.2" height="2.2"/>
					<rect x="488.2" y="44.5" class="st19" width="0.3" height="2.2"/>
					<rect x="491.8" y="44.5" class="st19" width="0.3" height="2.2"/>
					<rect x="495.4" y="44.5" class="st19" width="0.3" height="2.2"/>
					<rect x="499" y="44.5" class="st19" width="0.3" height="2.2"/>
					<rect x="502.6" y="44.5" class="st19" width="0.2" height="2.2"/>
					<rect x="506.1" y="44.5" class="st19" width="0.3" height="2.2"/>
					<rect x="509.7" y="44.5" class="st19" width="0.3" height="2.2"/>
					<rect x="513.3" y="44.5" class="st19" width="0.3" height="2.2"/>
					<rect x="516.9" y="44.5" class="st19" width="0.3" height="2.2"/>
					<rect x="520.5" y="44.5" class="st19" width="0.3" height="2.2"/>
					<rect x="524" y="44.5" class="st19" width="0.3" height="2.2"/>
					<rect x="527.6" y="44.5" class="st19" width="0.3" height="2.2"/>
					<rect x="531.2" y="44.5" class="st19" width="0.3" height="2.2"/>
					<rect x="534.8" y="44.5" class="st19" width="0.3" height="2.2"/>
					<rect x="538.4" y="44.5" class="st19" width="0.3" height="2.2"/>
					<rect x="541.9" y="44.5" class="st19" width="0.3" height="2.2"/>
					<rect x="545.5" y="44.5" class="st19" width="0.3" height="2.2"/>
					<rect x="549.1" y="44.5" class="st19" width="0.3" height="2.2"/>
					<rect x="552.7" y="44.5" class="st19" width="0.2" height="2.2"/>
				</g>
				<g>
					<rect x="447.1" y="44.5" class="st19" width="0.1" height="1.1"/>
					<rect x="450.7" y="44.5" class="st19" width="0.1" height="1.1"/>
					<rect x="454.3" y="44.5" class="st19" width="0.1" height="1.1"/>
					<rect x="457.9" y="44.5" class="st19" width="0.1" height="1.1"/>
					<rect x="461.4" y="44.5" class="st19" width="0.1" height="1.1"/>
					<rect x="465" y="44.5" class="st19" width="0.1" height="1.1"/>
					<rect x="468.6" y="44.5" class="st19" width="0.1" height="1.1"/>
					<rect x="472.2" y="44.5" class="st19" width="0.1" height="1.1"/>
					<rect x="475.8" y="44.5" class="st19" width="0.1" height="1.1"/>
					<rect x="479.3" y="44.5" class="st19" width="0.1" height="1.1"/>
					<rect x="482.9" y="44.5" class="st19" width="0.1" height="1.1"/>
					<rect x="486.5" y="44.5" class="st19" width="0.1" height="1.1"/>
					<rect x="490.1" y="44.5" class="st19" width="0.1" height="1.1"/>
					<rect x="493.7" y="44.5" class="st19" width="0.1" height="1.1"/>
					<rect x="497.2" y="44.5" class="st19" width="0.1" height="1.1"/>
					<rect x="500.8" y="44.5" class="st19" width="0.1" height="1.1"/>
					<rect x="504.4" y="44.5" class="st19" width="0.1" height="1.1"/>
					<rect x="508" y="44.5" class="st19" width="0.1" height="1.1"/>
					<rect x="511.6" y="44.5" class="st19" width="0.1" height="1.1"/>
					<rect x="515.1" y="44.5" class="st19" width="0.1" height="1.1"/>
					<rect x="518.7" y="44.5" class="st19" width="0.1" height="1.1"/>
					<rect x="522.3" y="44.5" class="st19" width="0.1" height="1.1"/>
					<rect x="525.9" y="44.5" class="st19" width="0.1" height="1.1"/>
					<rect x="529.5" y="44.5" class="st19" width="0.1" height="1.1"/>
					<rect x="533.1" y="44.5" class="st19" width="0.1" height="1.1"/>
					<rect x="536.6" y="44.5" class="st19" width="0.1" height="1.1"/>
					<rect x="540.2" y="44.5" class="st19" width="0.1" height="1.1"/>
					<rect x="543.8" y="44.5" class="st19" width="0.1" height="1.1"/>
					<rect x="547.4" y="44.5" class="st19" width="0.1" height="1.1"/>
					<rect x="551" y="44.5" class="st19" width="0.1" height="1.1"/>
				</g>
			</g>
		</g>
		<path class="st20" d="M101.9,48.2H36.8c-2.6,0-4.7,2.1-4.7,4.7v85.7c0,2.6,2.1,4.7,4.7,4.7h65.1c2.6,0,4.7-2.1,4.7-4.7V52.9
			C106.7,50.3,104.5,48.2,101.9,48.2z"/>
		<path class="st21" d="M106.7,52.9c0-2.6-2.1-4.7-4.7-4.7H49.7l57,64V52.9z"/>
		<path class="st22" d="M69.4,141c-1.1,0-1.9-0.9-1.9-1.9c0-1.1,0.9-1.9,1.9-1.9c1.1,0,1.9,0.8,1.9,1.9
			C71.3,140.1,70.4,141,69.4,141z"/>
		<circle class="st22" cx="69.4" cy="53.8" r="1.1"/>
		<rect x="40.5" y="57.4" class="st0" width="57.7" height="76.8"/>
		<rect x="40.5" y="57.4" class="st5" width="57.7" height="21.4"/>
		<rect x="40.5" y="78.8" class="st7" width="57.7" height="24.5"/>
		<g>
			<rect x="53.2" y="107" class="st5" width="32.3" height="19.4"/>
			<rect x="53.2" y="128.3" class="st5" width="32.3" height="1.5"/>
			<rect x="53.2" y="131.4" class="st5" width="32.3" height="1.5"/>
		</g>
		<circle class="st1" cx="70.4" cy="65" r="5.6"/>
		<g>
			<rect x="85.3" y="72.3" class="st1" width="12" height="5.2"/>
			<rect x="70.8" y="72.3" class="st1" width="12" height="5.2"/>
			<rect x="56.3" y="72.3" class="st1" width="12" height="5.2"/>
			<rect x="41.8" y="72.3" class="st1" width="12" height="5.2"/>
		</g>
		<g>
			<rect x="450.2" y="80.5" class="st10" width="79.7" height="11.2"/>
			<rect x="450.2" y="91.7" class="st20" width="79.7" height="23.6"/>
			<g>
				<g>
					<g>
						<rect x="450.2" y="117.3" class="st10" width="23.7" height="14.3"/>
						<rect x="450.2" y="133" class="st10" width="23.7" height="1.1"/>
						<rect x="450.2" y="135.2" class="st10" width="23.7" height="1.1"/>
						<rect x="450.2" y="137.5" class="st10" width="23.7" height="1.1"/>
						<rect x="450.2" y="139.8" class="st10" width="16.3" height="1.1"/>
					</g>
					<g>
						<rect x="478.2" y="117.3" class="st10" width="23.7" height="14.3"/>
						<rect x="478.2" y="133" class="st10" width="23.8" height="1.1"/>
						<rect x="478.2" y="135.2" class="st10" width="23.8" height="1.1"/>
						<rect x="478.2" y="137.5" class="st10" width="23.8" height="1.1"/>
						<rect x="478.2" y="139.8" class="st10" width="23.8" height="1.1"/>
					</g>
					<g>
						<rect x="506.2" y="117.3" class="st10" width="23.7" height="14.3"/>
						<rect x="506.2" y="133" class="st10" width="23.7" height="1.1"/>
						<rect x="506.2" y="135.2" class="st10" width="23.7" height="1.1"/>
						<rect x="506.2" y="137.5" class="st10" width="23.7" height="1.1"/>
						<rect x="506.2" y="139.8" class="st10" width="6.8" height="1.1"/>
					</g>
				</g>
			</g>
			<circle class="st1" cx="454.3" cy="86.1" r="4.1"/>
			<g>
				<rect x="520" y="83.2" class="st1" width="10" height="3.8"/>
				<rect x="508" y="83.2" class="st1" width="10" height="3.8"/>
				<rect x="496" y="83.2" class="st1" width="10" height="3.8"/>
				<rect x="484" y="83.2" class="st1" width="10" height="3.8"/>
			</g>
		</g>
		<g>
			<circle class="st23" cx="494.5" cy="128.1" r="15.9"/>
			<circle class="st24" cx="506" cy="147.6" r="15.9"/>
			<path class="st25" d="M490.6,143.5c1.2,0.3,2.5,0.5,3.8,0.5c7.4,0,13.6-5.1,15.4-11.9c-1.2-0.3-2.5-0.5-3.8-0.5
				C498.6,131.6,492.4,136.7,490.6,143.5z"/>
			<circle class="st26" cx="515" cy="130.8" r="15.9"/>
			<path class="st27" d="M515,146.7c2.4,0,4.7-0.6,6.8-1.5c-1.2-7.7-7.8-13.5-15.7-13.5c-2.4,0-4.7,0.6-6.8,1.5
				C500.4,140.8,507,146.7,515,146.7z"/>
			<path class="st28" d="M506.3,117.4c-4.4,2.8-7.3,7.8-7.3,13.4c0,4.1,1.6,7.8,4.1,10.7c4.4-2.8,7.3-7.8,7.3-13.4
				C510.4,124,508.8,120.3,506.3,117.4z"/>
		</g>
		<rect x="468.2" y="75.9" class="st0" width="86.8" height="125.4"/>
		<circle class="st23" cx="501.3" cy="128.1" r="15.9"/>
		<circle class="st24" cx="512.9" cy="147.6" r="15.9"/>
		<path class="st25" d="M497.5,143.5c1.2,0.3,2.5,0.5,3.8,0.5c7.4,0,13.6-5.1,15.4-11.9c-1.2-0.3-2.5-0.5-3.8-0.5
			C505.5,131.6,499.3,136.7,497.5,143.5z"/>
		<circle class="st26" cx="521.8" cy="130.8" r="15.9"/>
		<path class="st27" d="M521.8,146.7c2.4,0,4.7-0.6,6.8-1.5c-1.2-7.7-7.8-13.5-15.7-13.5c-2.4,0-4.7,0.6-6.8,1.5
			C507.2,140.8,513.8,146.7,521.8,146.7z"/>
		<path class="st28" d="M513.1,117.4c-4.4,2.8-7.3,7.8-7.3,13.4c0,4.1,1.6,7.8,4.1,10.7c4.4-2.8,7.3-7.8,7.3-13.4
			C517.3,124,515.7,120.3,513.1,117.4z"/>
		<path class="st18" d="M447.9,149.8l64.4-64.4c-0.7-0.5-1.8-0.3-2.6,0.4l-62.8,62.8L447.9,149.8z"/>
		<path class="st16" d="M444.1,146l2.6,2.6l62.8-62.8l0,0c0,0,0,0,0,0c0,0,0,0,0,0c0.8-1,0.9-2.2,0.2-2.9c-0.7-0.7-1.9-0.6-2.9,0.2
			c0,0,0,0,0,0c0,0,0,0,0,0l0,0L444.1,146z"/>
		<path class="st18" d="M507,83.2c0.7-0.9,0.9-1.9,0.4-2.6L443,144.9l1.1,1.1L507,83.2z"/>
		<path class="st29" d="M507.4,80.5c0.5,0.7,0.3,1.8-0.4,2.6l0,0c0,0,0,0,0,0c0,0,0,0,0,0c1-0.8,2.2-0.9,2.9-0.2
			c0.7,0.7,0.6,1.9-0.2,2.9c0,0,0,0,0,0c0,0,0,0,0,0l0,0c0.9-0.7,1.9-0.9,2.6-0.4l1.7-6.6L507.4,80.5z"/>
		<path class="st2" d="M513.1,82.1l0.8-3.2l-3.2,0.8c0.3,0.5,0.6,1,1,1.4C512.1,81.5,512.6,81.8,513.1,82.1z"/>
		<g>
			
				<rect x="445.6" y="148.8" transform="matrix(0.7072 0.707 -0.707 0.7072 236.874 -271.5853)" class="st30" width="1.6" height="2.8"/>
			
				<rect x="442.6" y="146.9" transform="matrix(0.7071 0.7072 -0.7072 0.7071 235.094 -270.8563)" class="st31" width="3.7" height="2.8"/>
			
				<rect x="441.8" y="145.1" transform="matrix(0.7072 0.707 -0.707 0.7072 233.1137 -270.0275)" class="st30" width="1.6" height="2.8"/>
		</g>
	</g>
	<g>
	</g>
	<g>
	</g>
	<g>
	</g>
	<g>
	</g>
	<g>
	</g>
	<g>
	</g>
</g>
</svg>
