<?xml version="1.0" encoding="utf-8"?>
<!-- Generator: Adobe Illustrator 19.1.0, SVG Export Plug-In . SVG Version: 6.00 Build 0)  -->
<svg version="1.1" id="Capa_1" xmlns="http://www.w3.org/2000/svg" xmlns:xlink="http://www.w3.org/1999/xlink" x="0px" y="0px"
	 viewBox="0 0 169.7 166" style="enable-background:new 0 0 169.7 166;" xml:space="preserve">
<style type="text/css">
	.st0{fill:#E0E0E0;}
	.st1{fill:#FF5454;}
	.st2{fill:#B72C2C;}
</style>
<path class="st0" d="M0,47.5c0,5.6,1,10.9,2.7,15.9C1,57.8,0.1,52.4,0,47C0,47.2,0,47.3,0,47.5z"/>
<g>
	<path class="st1" d="M84.9,18.2C76.2,7.1,62.7,0,47.5,0C21.4,0,0.3,21,0,47c0.1,5.4,1,10.8,2.7,16.4c8.5,27.1,37.5,62,82.1,102.6
		V18.2z"/>
	<path class="st2" d="M84.9,18.2C93.6,7.1,107.1,0,122.2,0c26.1,0,47.2,21,47.5,47c-0.1,5.4-1,10.8-2.7,16.4
		c-8.5,27.1-37.5,62-82.1,102.6V18.2z"/>
</g>
<g>
</g>
<g>
</g>
<g>
</g>
<g>
</g>
<g>
</g>
<g>
</g>
<g>
</g>
<g>
</g>
<g>
</g>
<g>
</g>
<g>
</g>
</svg>
