<?xml version="1.0" encoding="utf-8"?>
<!-- Generator: Adobe Illustrator 19.1.0, SVG Export Plug-In . SVG Version: 6.00 Build 0)  -->
<svg version="1.1" id="Capa_1" xmlns="http://www.w3.org/2000/svg" xmlns:xlink="http://www.w3.org/1999/xlink" x="0px" y="0px"
	 viewBox="0 0 70 70" style="enable-background:new 0 0 70 70;" xml:space="preserve">
<style type="text/css">
	.st0{fill:#FFFFFF;}
</style>
<path class="st0" d="M13.6,29.6c-1.4-1.4-3.3-2.2-5.4-2.2c-0.7,0-1.4,0.1-2,0.3L27.7,6.2c-0.7,2.5,0,5.4,2,7.4l4.7,4.7L18.2,34.3
	L13.6,29.6z"/>
<path class="st0" d="M6.2,42.3c0.6,0.2,1.3,0.3,2,0.3c2,0,3.9-0.8,5.4-2.2l4.7-4.7l16.1,16.1l-4.7,4.7c-2,2-2.6,4.8-2,7.4L6.2,42.3z
	"/>
<path class="st0" d="M8.2,41.6c-1.8,0-3.4-0.7-4.7-1.9S1.6,36.8,1.6,35s0.7-3.4,1.9-4.7s2.9-1.9,4.7-1.9c1.8,0,3.4,0.7,4.7,1.9
	l4.7,4.7l-4.7,4.7C11.6,40.9,10,41.6,8.2,41.6z"/>
<path class="st0" d="M35.7,18.2l4.7-4.7c1.4-1.4,2.2-3.3,2.2-5.4c0-0.7-0.1-1.4-0.3-2l21.5,21.5c-0.6-0.2-1.3-0.3-2-0.3
	c-2,0-3.9,0.8-5.4,2.2l-4.7,4.7L35.7,18.2z"/>
<path class="st0" d="M30.3,12.9c-2.6-2.6-2.6-6.7,0-9.3c1.2-1.2,2.9-1.9,4.7-1.9c1.8,0,3.4,0.7,4.7,1.9s1.9,2.9,1.9,4.7
	c0,1.8-0.7,3.4-1.9,4.7L35,17.5L30.3,12.9z"/>
<path class="st0" d="M42.3,63.8c0.2-0.6,0.3-1.3,0.3-2c0-2-0.8-3.9-2.2-5.4l-4.7-4.7l16.1-16.1l4.7,4.7c1.4,1.4,3.3,2.2,5.4,2.2
	c0.7,0,1.4-0.1,2-0.3L42.3,63.8z"/>
<g>
	<path class="st0" d="M35,68.4c-1.8,0-3.4-0.7-4.7-1.9c-2.6-2.6-2.6-6.7,0-9.3l4.7-4.7l4.7,4.7c1.2,1.2,1.9,2.9,1.9,4.7
		c0,1.8-0.7,3.4-1.9,4.7S36.8,68.4,35,68.4z"/>
</g>
<g>
	<path class="st0" d="M61.8,41.6c-1.8,0-3.4-0.7-4.7-1.9L52.5,35l4.7-4.7c1.2-1.2,2.9-1.9,4.7-1.9s3.4,0.7,4.7,1.9
		c2.6,2.6,2.6,6.7,0,9.3C65.2,40.9,63.6,41.6,61.8,41.6z"/>
</g>
<g>
	<path class="st0" d="M29.5,30.5c-0.1-0.3-0.3-0.6-0.6-0.8c-0.5-0.5-1.2-0.8-1.9-0.8s-1.4,0.3-1.9,0.8c-0.5,0.5-0.8,1.2-0.8,2
		c0,0.8,0.3,1.5,0.8,2c0.5,0.5,1.2,0.8,1.9,0.8s1.4-0.3,1.9-0.8c0.2-0.2,0.4-0.5,0.6-0.8h0.1c-0.1,0.3-0.4,0.7-0.6,0.9
		c-0.5,0.5-1.2,0.9-2,0.9s-1.5-0.3-2-0.9c-0.5-0.5-0.8-1.3-0.8-2.1c0-0.8,0.3-1.5,0.8-2.1c0.5-0.5,1.2-0.9,2-0.9s1.5,0.3,2,0.9
		c0.3,0.3,0.5,0.6,0.6,0.9H29.5z"/>
	<path class="st0" d="M31,29.5c0.5-0.6,1.3-0.9,2.1-0.9c0.8,0,1.6,0.3,2.1,0.9c0.5,0.5,0.9,1.3,0.9,2.1c0,0.8-0.3,1.6-0.9,2.1
		c-0.5,0.6-1.3,0.9-2.1,0.9c-0.8,0-1.6-0.3-2.1-0.9c-0.5-0.5-0.9-1.3-0.9-2.1C30.1,30.8,30.5,30,31,29.5z M35.1,29.6
		c-0.5-0.5-1.2-0.9-2-0.9s-1.5,0.3-2,0.9c-0.5,0.5-0.8,1.2-0.8,2s0.3,1.5,0.8,2c0.5,0.5,1.2,0.9,2,0.9s1.5-0.3,2-0.9
		c0.5-0.5,0.8-1.2,0.8-2S35.6,30.1,35.1,29.6z"/>
	<path class="st0" d="M38.7,28.7c3.8,0,3.8,5.9,0,5.9h-2c0-2,0-3.9,0-5.9H38.7z M38.7,34.4c3.7,0,3.7-5.6,0-5.6h-1.9
		c0,1.8,0,3.8,0,5.6H38.7z"/>
	<path class="st0" d="M44.2,28.8H43v5.6h1.2v0.1c-0.9,0-1.8,0-2.6,0v-0.1h1.2v-5.6h-1.2v-0.1c0.9,0,1.8,0,2.6,0V28.8z"/>
</g>
<g>
	<path class="st0" d="M29.7,41.4h-0.8v-5.6h3.4v0.8h-2.6v1.6H32V39h-2.3V41.4z"/>
	<path class="st0" d="M35.3,36.6h-1.1v4h1.1v0.8h-2.9v-0.8h1.1v-4h-1.1v-0.8h2.9V36.6z"/>
	<path class="st0" d="M36.5,35.7v5.6h-0.8v-5.6H36.5z M36.7,38.4l2-2.6h1l-2.2,2.8l2.4,2.8h-1.1l-2.2-2.6V38.4z"/>
	<path class="st0" d="M43.1,39.7h-2c-0.2,0.5-0.5,1.2-0.7,1.7h-0.9l2.3-5.7h0.6l2.3,5.7h-0.9L43.1,39.7z M41.3,39h1.4l-0.7-2
		L41.3,39z"/>
</g>
<g>
</g>
<g>
</g>
<g>
</g>
<g>
</g>
<g>
</g>
<g>
</g>
<g>
</g>
<g>
</g>
<g>
</g>
<g>
</g>
<g>
</g>
<g>
</g>
<g>
</g>
<g>
</g>
<g>
</g>
</svg>
