<?xml version="1.0" encoding="utf-8"?>
<!-- Generator: Adobe Illustrator 19.1.0, SVG Export Plug-In . SVG Version: 6.00 Build 0)  -->
<svg version="1.1" id="Capa_1" xmlns="http://www.w3.org/2000/svg" xmlns:xlink="http://www.w3.org/1999/xlink" x="0px" y="0px"
	 viewBox="0 0 453.8 453.8" style="enable-background:new 0 0 453.8 453.8;" xml:space="preserve">
<style type="text/css">
	.st0{fill:#FFFFFF;}
	.st1{fill:#F6F5F5;}
</style>
<g>
	<path class="st0" d="M82.4,191.9c-9.3-9.3-21.7-14.4-35-14.4c-6.4,0-12.6,1.2-18.4,3.5L181,29c-7.1,17.8-3.4,38.9,10.9,53.3
		l32.1,32.1L114.5,224.1L82.4,191.9z"/>
</g>
<g>
	<path class="st0" d="M29,272.8c5.8,2.3,12,3.5,18.4,3.5c13.2,0,25.7-5.1,35-14.4l32.1-32.1l109.5,109.5l-32.1,32.1
		c-14.4,14.4-18,35.5-10.9,53.4L29,272.8z"/>
</g>
<g>
	<path class="st1" d="M47.4,272.3c-12.2,0-23.6-4.7-32.1-13.3c-17.7-17.7-17.7-46.6,0-64.3c8.5-8.5,20-13.3,32.1-13.3
		c12.2,0,23.6,4.7,32.1,13.3l32.1,32.1L79.5,259C71,267.6,59.6,272.3,47.4,272.3z"/>
</g>
<g>
	<path class="st0" d="M229.7,114.5l32.1-32.1c14.4-14.4,18-35.5,10.9-53.3L424.8,181c-5.8-2.3-12-3.5-18.4-3.5
		c-13.2,0-25.7,5.1-35,14.4l-32.1,32.1L229.7,114.5z"/>
</g>
<g>
	<path class="st1" d="M194.7,79.5C177,61.8,177,33,194.7,15.3c8.5-8.5,20-13.3,32.1-13.3s23.6,4.7,32.1,13.3
		c17.7,17.7,17.7,46.6,0,64.3l-32.1,32.1L194.7,79.5z"/>
</g>
<g>
	<path class="st0" d="M272.8,424.8c7.1-17.8,3.4-39-10.9-53.4l-32.1-32.1l109.5-109.5l32.1,32.1c9.3,9.3,21.7,14.4,35,14.4
		c6.4,0,12.6-1.2,18.4-3.5L272.8,424.8z"/>
</g>
<g>
	<path class="st1" d="M226.9,451.8c-12.2,0-23.6-4.7-32.1-13.3c-8.5-8.5-13.3-20-13.3-32.1c0-12.2,4.7-23.6,13.3-32.1l32.1-32.1
		l32.1,32.1c17.7,17.7,17.7,46.6,0,64.3C250.5,447.1,239.1,451.8,226.9,451.8z"/>
</g>
<g>
	<path class="st1" d="M406.4,272.3c-12.2,0-23.6-4.7-32.1-13.3l-32.1-32.1l32.1-32.1c8.5-8.5,20-13.3,32.1-13.3
		c12.2,0,23.6,4.7,32.1,13.3c8.5,8.5,13.3,20,13.3,32.1c0,12.2-4.7,23.6-13.3,32.1C430,267.6,418.6,272.3,406.4,272.3z"/>
</g>
</svg>
