<?xml version="1.0" encoding="utf-8"?>
<!-- Generator: Adobe Illustrator 19.1.0, SVG Export Plug-In . SVG Version: 6.00 Build 0)  -->
<svg version="1.1" id="Capa_1" xmlns="http://www.w3.org/2000/svg" xmlns:xlink="http://www.w3.org/1999/xlink" x="0px" y="0px"
	 viewBox="0 0 454.5 454.5" style="enable-background:new 0 0 454.5 454.5;" xml:space="preserve">
<style type="text/css">
	.st0{fill:rgba(73, 255, 248, 0.9);}
	.st1{fill:rgba(205, 254, 248, 0.90);}
	.st2{fill:rgba(255, 77, 94, 0.90);}
	.st3{fill:rgba(255, 148, 158, 0.90);}
	.st4{fill:#FFFFFF;}
</style>
<path class="st0" d="M14.8,261.4l-1.2-1.2c-18.1-18.1-18.1-47.8,0-65.9L194.3,13.6c18.1-18.1,47.8-18.1,65.9,0l1.2,1.2
	c18.1,18.1,18.1,47.8,0,65.9L80.7,261.4C62.6,279.5,32.9,279.5,14.8,261.4z"/>
<path class="st1" d="M261.4,439.7l-1.2,1.2c-18.1,18.1-47.8,18.1-65.9,0L13.6,260.2c-18.1-18.1-18.1-47.8,0-65.9l1.2-1.2
	c18.1-18.1,47.8-18.1,65.9,0l180.7,180.7C279.5,391.9,279.5,421.6,261.4,439.7z"/>
<path class="st2" d="M193.1,14.8l1.2-1.2c18.1-18.1,47.8-18.1,65.9,0l180.7,180.7c18.1,18.1,18.1,47.8,0,65.9l-1.2,1.2
	c-18.1,18.1-47.8,18.1-65.9,0L193.1,80.7C175,62.6,175,32.9,193.1,14.8z"/>
<path class="st3" d="M439.7,193.1l1.2,1.2c18.1,18.1,18.1,47.8,0,65.9L260.2,440.9c-18.1,18.1-47.8,18.1-65.9,0l-1.2-1.2
	c-18.1-18.1-18.1-47.8,0-65.9l180.7-180.7C391.9,175,421.6,175,439.7,193.1z"/>
<g>
	<g>
		<path class="st4" d="M185,198.7c-0.9-2.1-2.2-3.9-3.7-5.5c-3.3-3.4-7.9-5.5-13-5.5c-5.1,0-9.7,2.1-13,5.5
			c-3.3,3.4-5.4,8.1-5.4,13.2c0,5.2,2.1,9.9,5.4,13.2c3.3,3.4,7.9,5.6,13,5.6c5.1,0,9.7-2.1,13-5.6c1.5-1.6,2.8-3.4,3.7-5.5h1
			c-1,2.3-2.4,4.4-4.1,6.1c-3.5,3.6-8.3,5.8-13.6,5.8s-10.1-2.2-13.6-5.8c-3.4-3.6-5.6-8.5-5.6-13.9c0-5.4,2.2-10.3,5.6-13.9
			c3.5-3.6,8.3-5.8,13.6-5.8s10.1,2.2,13.6,5.8c1.7,1.7,3.1,3.8,4.1,6.1H185z"/>
		<path class="st4" d="M194.6,192c3.6-3.7,8.7-6,14.2-6c5.6,0,10.6,2.3,14.3,6c3.6,3.7,5.9,8.7,5.9,14.3c0,5.6-2.3,10.7-5.9,14.3
			c-3.7,3.7-8.7,6-14.3,6c-5.5,0-10.6-2.3-14.2-6c-3.6-3.7-5.9-8.7-5.9-14.3C188.7,200.8,191,195.7,194.6,192z M222.5,192.7
			c-3.5-3.6-8.3-5.7-13.6-5.7c-5.3,0-10.1,2.2-13.6,5.7c-3.4,3.5-5.6,8.3-5.6,13.6c0,5.4,2.2,10.1,5.6,13.6
			c3.5,3.6,8.3,5.7,13.6,5.7c5.3,0,10.1-2.2,13.6-5.7c3.4-3.5,5.6-8.3,5.6-13.6C228,201,225.9,196.2,222.5,192.7z"/>
		<path class="st4" d="M246.1,186.7c25.9,0,25.9,39.4,0,39.4h-13.3c0-13.1,0-26.3,0-39.4H246.1z M246.1,225.2
			c24.7,0,24.7-37.7,0-37.7h-12.5c0,12.2,0,25.5,0,37.7H246.1z"/>
		<path class="st4" d="M283,187.5h-8.4v37.8h8.4v0.8c-5.9,0-11.8,0-17.6,0v-0.8h8.4v-37.8h-8.4v-0.8c5.9,0,11.8,0,17.6,0V187.5z"/>
	</g>
	<g>
		<path class="st4" d="M187,274h-5.7v-39.4h23.5v5.7H187v11.1h15.8v5.7H187V274z"/>
		<path class="st4" d="M226,240.2h-7.3v28.1h7.3v5.7h-20.3v-5.7h7.3v-28.1h-7.3v-5.6H226V240.2z"/>
		<path class="st4" d="M234.5,234.6V274h-5.6v-39.4H234.5z M235.6,252.8l13.8-18.3h7.2l-15.1,19.6L258,274h-7.4l-15-18.3V252.8z"/>
		<path class="st4" d="M280.1,262.4h-14.1c-1.5,3.6-3.5,8.3-4.7,11.6h-6.1l15.8-40h4.2l15.8,40h-6.1L280.1,262.4z M268.1,257h9.8
			l-4.8-13.9L268.1,257z"/>
	</g>
</g>
<g>
</g>
<g>
</g>
<g>
</g>
<g>
</g>
<g>
</g>
<g>
</g>
<g>
</g>
<g>
</g>
<g>
</g>
<g>
</g>
<g>
</g>
<g>
</g>
<g>
</g>
<g>
</g>
<g>
</g>
</svg>
