<?xml version="1.0" encoding="utf-8"?>
<!-- Generator: Adobe Illustrator 19.1.0, SVG Export Plug-In . SVG Version: 6.00 Build 0)  -->
<svg version="1.1" id="Capa_1" xmlns="http://www.w3.org/2000/svg" xmlns:xlink="http://www.w3.org/1999/xlink" x="0px" y="0px"
	 viewBox="0 0 330.8 70.2" style="enable-background:new 0 0 330.8 70.2;" xml:space="preserve">
<style type="text/css">
	.st0{fill:#FFFFFF;}
</style>
<g>
	<path class="st0" d="M11.9,31.4c-1.4-1.4-3.3-2.2-5.4-2.2c-0.7,0-1.4,0.1-2,0.3L26.1,8c-0.7,2.5,0,5.4,2,7.4l4.7,4.7L16.6,36.1
		L11.9,31.4z"/>
	<path class="st0" d="M4.6,44.1c0.6,0.2,1.3,0.3,2,0.3c2,0,3.9-0.8,5.4-2.2l4.7-4.7l16.1,16.1L28,58.2c-2,2-2.6,4.8-2,7.4L4.6,44.1z
		"/>
	<path class="st0" d="M6.6,43.4c-1.8,0-3.4-0.7-4.7-1.9S0,38.6,0,36.8s0.7-3.4,1.9-4.7s2.9-1.9,4.7-1.9c1.8,0,3.4,0.7,4.7,1.9
		l4.7,4.7l-4.7,4.7C10,42.7,8.3,43.4,6.6,43.4z"/>
	<path class="st0" d="M34.1,20l4.7-4.7C40.2,13.9,41,12,41,10c0-0.7-0.1-1.4-0.3-2l21.5,21.5c-0.6-0.2-1.3-0.3-2-0.3
		c-2,0-3.9,0.8-5.4,2.2l-4.7,4.7L34.1,20z"/>
	<path class="st0" d="M28.7,14.7c-2.6-2.6-2.6-6.7,0-9.3c1.2-1.2,2.9-1.9,4.7-1.9c1.8,0,3.4,0.7,4.7,1.9C39.3,6.6,40,8.2,40,10
		c0,1.8-0.7,3.4-1.9,4.7l-4.7,4.7L28.7,14.7z"/>
	<path class="st0" d="M40.7,65.6c0.2-0.6,0.3-1.3,0.3-2c0-2-0.8-3.9-2.2-5.4l-4.7-4.7l16.1-16.1l4.7,4.7c1.4,1.4,3.3,2.2,5.4,2.2
		c0.7,0,1.4-0.1,2-0.3L40.7,65.6z"/>
	<g>
		<path class="st0" d="M33.4,70.2c-1.8,0-3.4-0.7-4.7-1.9c-2.6-2.6-2.6-6.7,0-9.3l4.7-4.7l4.7,4.7c1.2,1.2,1.9,2.9,1.9,4.7
			c0,1.8-0.7,3.4-1.9,4.7C36.8,69.5,35.1,70.2,33.4,70.2z"/>
	</g>
	<g>
		<path class="st0" d="M60.2,43.4c-1.8,0-3.4-0.7-4.7-1.9l-4.7-4.7l4.7-4.7c1.2-1.2,2.9-1.9,4.7-1.9s3.4,0.7,4.7,1.9
			c2.6,2.6,2.6,6.7,0,9.3C63.6,42.7,61.9,43.4,60.2,43.4z"/>
	</g>
	<g>
		<path class="st0" d="M80.2,21.7c3.4-3.6,8.3-5.9,13.6-5.9c9,0,16.1,5.6,18.4,14.6h-5.6c-2.1-5.9-6.9-8.9-12.7-8.9
			c-3.8,0-7.2,1.6-9.7,4.2s-4.1,6.1-4.1,10.2c0,3.9,1.6,7.4,4.1,10s5.9,4.2,9.7,4.2c6,0,11.1-3.4,13.1-9.4h5.6
			c-2.3,9-9.5,15.1-18.7,15.1c-5.4,0-10.2-2.3-13.6-5.9c-3.4-3.6-5.6-8.6-5.6-14C74.5,30.3,76.8,25.3,80.2,21.7z"/>
		<path class="st0" d="M120.2,21.5c3.6-3.7,8.7-6,14.2-6c5.6,0,10.6,2.3,14.3,6c3.6,3.7,5.9,8.7,5.9,14.3s-2.3,10.6-5.9,14.3
			c-3.7,3.7-8.7,6-14.3,6c-5.5,0-10.6-2.3-14.2-6c-3.6-3.7-5.9-8.7-5.9-14.3S116.6,25.2,120.2,21.5z M144.6,25.6
			c-2.7-2.7-6.3-4.3-10.2-4.3c-3.9,0-7.5,1.6-10.1,4.3c-2.6,2.6-4.2,6.2-4.2,10.2s1.6,7.6,4.2,10.2c2.6,2.7,6.2,4.3,10.1,4.3
			c3.9,0,7.6-1.6,10.2-4.3c2.5-2.6,4.2-6.1,4.2-10.2S147.1,28.2,144.6,25.6z"/>
		<path class="st0" d="M172.3,16.1c12.9,0,19.4,9.9,19.4,19.7c0,9.9-6.5,19.7-19.4,19.7h-14.2V16.1H172.3z M172.3,49.8
			c9.1,0,13.8-7,13.8-14s-4.6-14-13.8-14h-8.5v28H172.3z"/>
		<path class="st0" d="M211.5,21.7h-7.3v28.1h7.3v5.7h-20.4v-5.7h7.3V21.7h-7.3v-5.6h20.4V21.7z"/>
		<path class="st0" d="M219.8,55.5h-5.7V16.1h23.5v5.7h-17.8v11.1h15.8v5.8h-15.8V55.5z"/>
		<path class="st0" d="M258.8,21.7h-7.3v28.1h7.3v5.7h-20.4v-5.7h7.3V21.7h-7.3v-5.6h20.4V21.7z"/>
		<path class="st0" d="M267.3,16.1v39.4h-5.6V16.1H267.3z M268.4,34.4l13.8-18.3h7.2l-15.1,19.6l16.6,19.9h-7.4l-15.1-18.3V34.4z"/>
		<path class="st0" d="M312.9,43.9h-14.2c-1.5,3.6-3.5,8.3-4.7,11.6h-6.1l15.8-40h4.2l15.8,40h-6.1L312.9,43.9z M300.9,38.5h9.8
			l-4.9-13.9L300.9,38.5z"/>
	</g>
	<path class="st0" d="M330.8,9.5c0,1.3-0.3,2.6-0.8,3.8s-1.2,2.2-2.1,3c-0.9,0.9-1.9,1.5-3.1,2c-1.2,0.5-2.5,0.7-3.8,0.7
		c-1.4,0-2.7-0.2-3.9-0.7c-1.2-0.5-2.2-1.1-3.1-2c-0.9-0.8-1.5-1.8-2-3c-0.5-1.2-0.7-2.4-0.7-3.8c0-1.3,0.3-2.6,0.8-3.7
		s1.2-2.2,2.1-3c0.9-0.9,1.9-1.5,3.1-2c1.2-0.5,2.5-0.7,3.8-0.7c1.4,0,2.7,0.2,3.9,0.7c1.2,0.5,2.2,1.1,3.1,2c0.9,0.8,1.5,1.8,2,3
		C330.6,6.8,330.8,8.1,330.8,9.5z M328,9.6c0-1-0.2-2-0.5-2.9c-0.3-0.9-0.8-1.6-1.4-2.3s-1.3-1.1-2.2-1.5c-0.8-0.4-1.8-0.5-2.8-0.5
		c-1,0-2,0.2-2.8,0.6c-0.9,0.4-1.6,0.9-2.2,1.5c-0.6,0.6-1.1,1.4-1.4,2.2c-0.3,0.9-0.5,1.8-0.5,2.7c0,1,0.2,2,0.5,2.9
		c0.3,0.9,0.8,1.6,1.4,2.3c0.6,0.6,1.3,1.1,2.2,1.5c0.8,0.4,1.8,0.5,2.8,0.5c1,0,2-0.2,2.9-0.5c0.9-0.4,1.6-0.9,2.2-1.5
		c0.6-0.6,1.1-1.4,1.4-2.2C327.9,11.5,328,10.6,328,9.6z M325.7,13.8c0,0.1,0,0.1-0.1,0.2c0,0.1-0.1,0.1-0.2,0.1
		c-0.1,0-0.3,0.1-0.5,0.1c-0.2,0-0.5,0-0.8,0c-0.3,0-0.6,0-0.8,0c-0.2,0-0.4-0.1-0.5-0.1c-0.1,0-0.2-0.1-0.3-0.2
		c-0.1-0.1-0.1-0.2-0.1-0.3L322,12c-0.2-0.5-0.3-0.9-0.5-1.1c-0.2-0.2-0.5-0.3-0.9-0.3H320v3c0,0.2-0.1,0.3-0.3,0.4
		c-0.2,0.1-0.6,0.1-1.1,0.1c-0.6,0-1,0-1.2-0.1c-0.2-0.1-0.3-0.2-0.3-0.4v-8c0-0.4,0.1-0.8,0.3-1s0.5-0.4,1-0.4h3
		c0.5,0,1.1,0,1.6,0.1c0.5,0.1,0.9,0.3,1.3,0.5c0.4,0.2,0.7,0.5,0.9,0.9c0.2,0.4,0.3,0.8,0.3,1.3c0,0.7-0.2,1.3-0.6,1.7
		c-0.4,0.4-0.9,0.7-1.6,0.9c0.4,0.1,0.8,0.3,1.1,0.6c0.3,0.3,0.6,0.7,0.8,1.2l0.5,1.4C325.6,13.3,325.7,13.6,325.7,13.8z M322.3,7.5
		c0-0.1,0-0.3-0.1-0.4c0-0.1-0.1-0.2-0.2-0.3c-0.1-0.1-0.2-0.2-0.4-0.2c-0.2-0.1-0.4-0.1-0.7-0.1H320v2.2h0.8c0.5,0,0.9-0.1,1.1-0.3
		C322.2,8.1,322.3,7.8,322.3,7.5z"/>
</g>
<g>
</g>
<g>
</g>
<g>
</g>
<g>
</g>
<g>
</g>
<g>
</g>
<g>
</g>
<g>
</g>
<g>
</g>
<g>
</g>
<g>
</g>
<g>
</g>
<g>
</g>
<g>
</g>
<g>
</g>
</svg>
