<?xml version="1.0" encoding="utf-8"?>
<!-- Generator: Adobe Illustrator 19.2.1, SVG Export Plug-In . SVG Version: 6.00 Build 0)  -->
<svg version="1.1" id="Capa_1" xmlns="http://www.w3.org/2000/svg" xmlns:xlink="http://www.w3.org/1999/xlink" x="0px" y="0px"
	 viewBox="0 0 350.9 350.9" style="enable-background:new 0 0 350.9 350.9;" xml:space="preserve">
<style type="text/css">
	.st0{fill:#FFFFFF;}
	.st1{fill:none;stroke:#FFFFFF;stroke-width:5;stroke-miterlimit:10;}
	.st2{fill:none;stroke:#FFFFFF;stroke-width:7;stroke-miterlimit:10;}
</style>
<g>
	<path class="st0" d="M140.2,197h-14.1l-5.6-14.6H94.8L89.5,197H75.7l25-64.3h13.7L140.2,197z M116.3,171.6l-8.9-23.8l-8.7,23.8
		H116.3z"/>
	<path class="st0" d="M144.4,165.3c0-6.5,1-12,2.9-16.5c1.5-3.3,3.5-6.2,6-8.8c2.5-2.6,5.3-4.5,8.3-5.8c4-1.7,8.6-2.5,13.8-2.5
		c9.5,0,17,2.9,22.7,8.8c5.7,5.9,8.5,14,8.5,24.5c0,10.4-2.8,18.5-8.5,24.3c-5.6,5.9-13.2,8.8-22.6,8.8c-9.6,0-17.2-2.9-22.8-8.7
		C147.3,183.6,144.4,175.5,144.4,165.3z M157.8,164.9c0,7.3,1.7,12.8,5,16.5c3.4,3.8,7.6,5.6,12.8,5.6c5.2,0,9.4-1.9,12.7-5.6
		c3.3-3.7,5-9.3,5-16.8c0-7.4-1.6-12.9-4.8-16.5c-3.2-3.6-7.5-5.4-12.9-5.4c-5.3,0-9.7,1.8-12.9,5.5
		C159.4,152,157.8,157.5,157.8,164.9z"/>
	<path class="st0" d="M258,173.4l12.6,4c-1.9,7-5.1,12.2-9.6,15.6c-4.5,3.4-10.2,5.1-17.1,5.1c-8.5,0-15.5-2.9-21-8.7
		c-5.5-5.8-8.2-13.8-8.2-23.9c0-10.7,2.8-19,8.3-24.9c5.5-5.9,12.8-8.9,21.8-8.9c7.9,0,14.2,2.3,19.2,7c2.9,2.7,5.1,6.7,6.6,11.8
		l-12.8,3.1c-0.8-3.3-2.3-6-4.8-7.9s-5.3-2.9-8.8-2.9c-4.8,0-8.6,1.7-11.6,5.1c-3,3.4-4.4,9-4.4,16.6c0,8.1,1.5,13.9,4.4,17.4
		c2.9,3.4,6.7,5.2,11.4,5.2c3.4,0,6.4-1.1,8.9-3.3C255.1,181.6,256.9,178.1,258,173.4z"/>
</g>
<line class="st1" x1="22.1" y1="216.7" x2="328.8" y2="216.7"/>
<g>
	<path class="st0" d="M99.9,236.6h-2.5l-1-2.6h-4.6l-1,2.6h-2.5l4.5-11.6h2.5L99.9,236.6z M95.6,232l-1.6-4.3l-1.6,4.3H95.6z"/>
	<path class="st0" d="M108.8,236.6h-2.2v-4.3c0-0.9,0-1.5-0.1-1.8c-0.1-0.3-0.2-0.5-0.5-0.6c-0.2-0.1-0.5-0.2-0.8-0.2
		c-0.4,0-0.7,0.1-1,0.3s-0.5,0.5-0.6,0.8c-0.1,0.3-0.2,1-0.2,1.9v3.8h-2.2v-8.4h2.1v1.2c0.7-0.9,1.6-1.4,2.8-1.4
		c0.5,0,0.9,0.1,1.3,0.3c0.4,0.2,0.7,0.4,0.9,0.7c0.2,0.3,0.4,0.6,0.4,0.9c0.1,0.3,0.1,0.8,0.1,1.5V236.6z"/>
	<path class="st0" d="M112.7,230.7l-2-0.4c0.2-0.8,0.6-1.4,1.2-1.8c0.6-0.4,1.4-0.6,2.5-0.6c1,0,1.7,0.1,2.2,0.4
		c0.5,0.2,0.8,0.5,1,0.9c0.2,0.4,0.3,1,0.3,2l0,2.6c0,0.7,0,1.3,0.1,1.6c0.1,0.3,0.2,0.7,0.4,1.1h-2.2c-0.1-0.1-0.1-0.4-0.2-0.7
		c0-0.1-0.1-0.2-0.1-0.3c-0.4,0.4-0.8,0.6-1.2,0.8c-0.4,0.2-0.9,0.3-1.4,0.3c-0.9,0-1.5-0.2-2-0.7c-0.5-0.5-0.7-1.1-0.7-1.8
		c0-0.5,0.1-0.9,0.3-1.3c0.2-0.4,0.5-0.7,0.9-0.9c0.4-0.2,1-0.4,1.8-0.5c1-0.2,1.8-0.4,2.2-0.5v-0.2c0-0.4-0.1-0.7-0.3-0.9
		c-0.2-0.2-0.6-0.3-1.2-0.3c-0.4,0-0.7,0.1-0.9,0.2C113,230.1,112.8,230.3,112.7,230.7z M115.6,232.5c-0.3,0.1-0.7,0.2-1.3,0.3
		c-0.6,0.1-1,0.3-1.2,0.4c-0.3,0.2-0.4,0.5-0.4,0.8c0,0.3,0.1,0.6,0.3,0.8s0.5,0.3,0.9,0.3c0.4,0,0.8-0.1,1.1-0.4
		c0.3-0.2,0.4-0.4,0.5-0.7c0.1-0.2,0.1-0.5,0.1-1.1V232.5z"/>
	<path class="st0" d="M122.2,225v4.2c0.7-0.8,1.6-1.3,2.6-1.3c0.5,0,1,0.1,1.4,0.3c0.4,0.2,0.7,0.4,0.9,0.7c0.2,0.3,0.3,0.6,0.4,1
		c0.1,0.4,0.1,0.9,0.1,1.7v4.9h-2.2v-4.4c0-0.9,0-1.4-0.1-1.7s-0.2-0.4-0.4-0.6s-0.5-0.2-0.8-0.2c-0.4,0-0.7,0.1-1,0.3
		c-0.3,0.2-0.5,0.4-0.6,0.8c-0.1,0.4-0.2,0.9-0.2,1.6v4.2H120V225H122.2z"/>
	<path class="st0" d="M135.4,236.6v-1.3c-0.3,0.4-0.7,0.8-1.2,1.1s-1,0.4-1.6,0.4c-0.6,0-1.1-0.1-1.5-0.4c-0.4-0.2-0.8-0.6-1-1
		c-0.2-0.4-0.3-1.1-0.3-1.9v-5.3h2.2v3.8c0,1.2,0,1.9,0.1,2.2c0.1,0.3,0.2,0.5,0.4,0.6c0.2,0.2,0.5,0.2,0.8,0.2c0.4,0,0.7-0.1,1-0.3
		c0.3-0.2,0.5-0.5,0.6-0.8c0.1-0.3,0.2-1.1,0.2-2.3v-3.5h2.2v8.4H135.4z M132.5,227.2l1.1-2.4h2.5l-2.2,2.4H132.5z"/>
	<path class="st0" d="M141.4,230.7l-2-0.4c0.2-0.8,0.6-1.4,1.2-1.8c0.6-0.4,1.4-0.6,2.5-0.6c1,0,1.7,0.1,2.2,0.4
		c0.5,0.2,0.8,0.5,1,0.9c0.2,0.4,0.3,1,0.3,2l0,2.6c0,0.7,0,1.3,0.1,1.6c0.1,0.3,0.2,0.7,0.4,1.1h-2.2c-0.1-0.1-0.1-0.4-0.2-0.7
		c0-0.1-0.1-0.2-0.1-0.3c-0.4,0.4-0.8,0.6-1.2,0.8c-0.4,0.2-0.9,0.3-1.4,0.3c-0.9,0-1.5-0.2-2-0.7c-0.5-0.5-0.7-1.1-0.7-1.8
		c0-0.5,0.1-0.9,0.3-1.3c0.2-0.4,0.5-0.7,0.9-0.9c0.4-0.2,1-0.4,1.8-0.5c1-0.2,1.8-0.4,2.2-0.5v-0.2c0-0.4-0.1-0.7-0.3-0.9
		c-0.2-0.2-0.6-0.3-1.2-0.3c-0.4,0-0.7,0.1-0.9,0.2C141.7,230.1,141.5,230.3,141.4,230.7z M144.3,232.5c-0.3,0.1-0.7,0.2-1.3,0.3
		c-0.6,0.1-1,0.3-1.2,0.4c-0.3,0.2-0.4,0.5-0.4,0.8c0,0.3,0.1,0.6,0.3,0.8s0.5,0.3,0.9,0.3c0.4,0,0.8-0.1,1.1-0.4
		c0.3-0.2,0.4-0.4,0.5-0.7c0.1-0.2,0.1-0.5,0.1-1.1V232.5z"/>
	<path class="st0" d="M156,230.7l-2.2,0.4c-0.1-0.4-0.2-0.8-0.5-1c-0.3-0.2-0.6-0.3-1-0.3c-0.6,0-1,0.2-1.3,0.6
		c-0.3,0.4-0.5,1-0.5,1.9c0,1,0.2,1.7,0.5,2.1c0.3,0.4,0.8,0.6,1.3,0.6c0.4,0,0.8-0.1,1-0.4c0.3-0.2,0.5-0.6,0.6-1.2l2.2,0.4
		c-0.2,1-0.7,1.8-1.3,2.3c-0.6,0.5-1.5,0.8-2.6,0.8c-1.2,0-2.2-0.4-2.9-1.2s-1.1-1.8-1.1-3.2c0-1.4,0.4-2.5,1.1-3.2
		c0.7-0.8,1.7-1.2,3-1.2c1,0,1.8,0.2,2.4,0.7C155.3,229.1,155.7,229.8,156,230.7z"/>
	<path class="st0" d="M161.7,230.8c0-1.2,0.2-2.2,0.5-3c0.3-0.6,0.6-1.1,1.1-1.6s1-0.8,1.5-1c0.7-0.3,1.5-0.5,2.5-0.5
		c1.7,0,3.1,0.5,4.1,1.6c1,1.1,1.5,2.5,1.5,4.4c0,1.9-0.5,3.3-1.5,4.4s-2.4,1.6-4.1,1.6c-1.7,0-3.1-0.5-4.1-1.6
		C162.2,234.1,161.7,232.7,161.7,230.8z M164.1,230.8c0,1.3,0.3,2.3,0.9,3c0.6,0.7,1.4,1,2.3,1c0.9,0,1.7-0.3,2.3-1
		c0.6-0.7,0.9-1.7,0.9-3c0-1.3-0.3-2.3-0.9-3c-0.6-0.7-1.4-1-2.3-1c-1,0-1.7,0.3-2.3,1C164.4,228.4,164.1,229.4,164.1,230.8z"/>
	<path class="st0" d="M173.7,228.2h1.2v-0.6c0-0.7,0.1-1.2,0.2-1.6c0.2-0.3,0.4-0.6,0.8-0.8c0.4-0.2,0.9-0.3,1.5-0.3
		c0.6,0,1.2,0.1,1.9,0.3l-0.3,1.5c-0.4-0.1-0.7-0.1-1-0.1c-0.3,0-0.6,0.1-0.7,0.2c-0.1,0.1-0.2,0.4-0.2,0.9v0.6h1.7v1.7h-1.7v6.6
		H175v-6.6h-1.2V228.2z"/>
	<path class="st0" d="M179.1,228.2h1.2v-0.6c0-0.7,0.1-1.2,0.2-1.6c0.2-0.3,0.4-0.6,0.8-0.8c0.4-0.2,0.9-0.3,1.5-0.3
		c0.6,0,1.2,0.1,1.9,0.3l-0.3,1.5c-0.4-0.1-0.7-0.1-1-0.1c-0.3,0-0.6,0.1-0.7,0.2c-0.1,0.1-0.2,0.4-0.2,0.9v0.6h1.7v1.7h-1.7v6.6
		h-2.2v-6.6h-1.2V228.2z"/>
	<path class="st0" d="M185.4,227v-2h2.2v2H185.4z M185.4,236.6v-8.4h2.2v8.4H185.4z"/>
	<path class="st0" d="M197.2,230.7L195,231c-0.1-0.4-0.2-0.8-0.5-1c-0.3-0.2-0.6-0.3-1-0.3c-0.6,0-1,0.2-1.3,0.6s-0.5,1-0.5,1.9
		c0,1,0.2,1.7,0.5,2.1c0.3,0.4,0.8,0.6,1.3,0.6c0.4,0,0.8-0.1,1-0.4c0.3-0.2,0.5-0.6,0.6-1.2l2.2,0.4c-0.2,1-0.7,1.8-1.3,2.3
		c-0.6,0.5-1.5,0.8-2.6,0.8c-1.2,0-2.2-0.4-2.9-1.2s-1.1-1.8-1.1-3.2c0-1.4,0.4-2.5,1.1-3.2c0.7-0.8,1.7-1.2,3-1.2
		c1,0,1.8,0.2,2.4,0.7C196.5,229.1,197,229.8,197.2,230.7z"/>
	<path class="st0" d="M203.8,233.9l2.2,0.4c-0.3,0.8-0.7,1.4-1.3,1.8c-0.6,0.4-1.4,0.6-2.3,0.6c-1.5,0-2.5-0.5-3.2-1.4
		c-0.6-0.8-0.8-1.7-0.8-2.9c0-1.4,0.4-2.5,1.1-3.3c0.7-0.8,1.6-1.2,2.8-1.2c1.2,0,2.2,0.4,2.9,1.2c0.7,0.8,1.1,2.1,1,3.8h-5.5
		c0,0.7,0.2,1.2,0.5,1.5s0.8,0.5,1.3,0.5c0.3,0,0.6-0.1,0.9-0.3C203.5,234.6,203.6,234.3,203.8,233.9z M203.9,231.6
		c0-0.6-0.2-1.1-0.5-1.5c-0.3-0.3-0.7-0.5-1.2-0.5c-0.5,0-0.9,0.2-1.2,0.5s-0.5,0.8-0.5,1.4H203.9z"/>
	<path class="st0" d="M219.8,232.3l2.3,0.7c-0.3,1.3-0.9,2.2-1.7,2.8c-0.8,0.6-1.8,0.9-3.1,0.9c-1.5,0-2.8-0.5-3.8-1.6
		c-1-1-1.5-2.5-1.5-4.3c0-1.9,0.5-3.4,1.5-4.5c1-1.1,2.3-1.6,3.9-1.6c1.4,0,2.6,0.4,3.4,1.3c0.5,0.5,0.9,1.2,1.2,2.1l-2.3,0.6
		c-0.1-0.6-0.4-1.1-0.9-1.4s-1-0.5-1.6-0.5c-0.9,0-1.6,0.3-2.1,0.9s-0.8,1.6-0.8,3c0,1.5,0.3,2.5,0.8,3.1c0.5,0.6,1.2,0.9,2,0.9
		c0.6,0,1.2-0.2,1.6-0.6C219.3,233.8,219.6,233.1,219.8,232.3z"/>
	<path class="st0" d="M228.9,233.9l2.2,0.4c-0.3,0.8-0.7,1.4-1.3,1.8c-0.6,0.4-1.4,0.6-2.3,0.6c-1.5,0-2.5-0.5-3.2-1.4
		c-0.6-0.8-0.8-1.7-0.8-2.9c0-1.4,0.4-2.5,1.1-3.3c0.7-0.8,1.6-1.2,2.8-1.2c1.2,0,2.2,0.4,2.9,1.2c0.7,0.8,1.1,2.1,1,3.8h-5.5
		c0,0.7,0.2,1.2,0.5,1.5s0.8,0.5,1.3,0.5c0.3,0,0.6-0.1,0.9-0.3C228.6,234.6,228.7,234.3,228.9,233.9z M229,231.6
		c0-0.6-0.2-1.1-0.5-1.5c-0.3-0.3-0.7-0.5-1.2-0.5c-0.5,0-0.9,0.2-1.2,0.5s-0.5,0.8-0.5,1.4H229z"/>
	<path class="st0" d="M240.6,236.6h-2.2v-4.3c0-0.9,0-1.5-0.1-1.8c-0.1-0.3-0.2-0.5-0.5-0.6c-0.2-0.1-0.5-0.2-0.8-0.2
		c-0.4,0-0.7,0.1-1,0.3s-0.5,0.5-0.6,0.8s-0.2,1-0.2,1.9v3.8H233v-8.4h2.1v1.2c0.7-0.9,1.6-1.4,2.8-1.4c0.5,0,0.9,0.1,1.3,0.3
		c0.4,0.2,0.7,0.4,0.9,0.7c0.2,0.3,0.4,0.6,0.4,0.9c0.1,0.3,0.1,0.8,0.1,1.5V236.6z"/>
	<path class="st0" d="M246.7,228.2v1.8h-1.5v3.4c0,0.7,0,1.1,0,1.2c0,0.1,0.1,0.2,0.2,0.3c0.1,0.1,0.2,0.1,0.4,0.1
		c0.2,0,0.5-0.1,0.9-0.2l0.2,1.7c-0.5,0.2-1.1,0.3-1.7,0.3c-0.4,0-0.8-0.1-1.1-0.2c-0.3-0.1-0.6-0.3-0.7-0.5
		c-0.1-0.2-0.3-0.5-0.3-0.9c0-0.3-0.1-0.8-0.1-1.6v-3.6h-1v-1.8h1v-1.7l2.2-1.3v3H246.7z"/>
	<path class="st0" d="M253.1,233.9l2.2,0.4c-0.3,0.8-0.7,1.4-1.3,1.8c-0.6,0.4-1.4,0.6-2.3,0.6c-1.5,0-2.5-0.5-3.2-1.4
		c-0.6-0.8-0.8-1.7-0.8-2.9c0-1.4,0.4-2.5,1.1-3.3c0.7-0.8,1.6-1.2,2.8-1.2c1.2,0,2.2,0.4,2.9,1.2c0.7,0.8,1.1,2.1,1,3.8h-5.5
		c0,0.7,0.2,1.2,0.5,1.5s0.8,0.5,1.3,0.5c0.3,0,0.6-0.1,0.9-0.3C252.8,234.6,253,234.3,253.1,233.9z M253.2,231.6
		c0-0.6-0.2-1.1-0.5-1.5c-0.3-0.3-0.7-0.5-1.2-0.5c-0.5,0-0.9,0.2-1.2,0.5s-0.5,0.8-0.5,1.4H253.2z"/>
	<path class="st0" d="M259.3,236.6h-2.2v-8.4h2.1v1.2c0.4-0.6,0.7-0.9,1-1.1c0.3-0.2,0.6-0.3,1-0.3c0.5,0,1,0.1,1.5,0.4l-0.7,1.9
		c-0.4-0.2-0.7-0.4-1-0.4c-0.3,0-0.6,0.1-0.8,0.3c-0.2,0.2-0.4,0.5-0.5,0.9c-0.1,0.4-0.2,1.4-0.2,2.8V236.6z"/>
</g>
<rect x="3.5" y="3.5" class="st2" width="343.9" height="343.9"/>
<g>
	<g>
		<path class="st0" d="M112.3,59.2h3.2c0.7,0,1.3,0.1,1.6,0.2c0.5,0.1,0.9,0.4,1.3,0.8s0.6,0.8,0.8,1.4s0.3,1.2,0.3,2
			c0,0.7-0.1,1.3-0.3,1.8c-0.2,0.6-0.5,1.1-0.9,1.5c-0.3,0.3-0.7,0.5-1.2,0.7c-0.4,0.1-0.9,0.2-1.5,0.2h-3.3V59.2z M114,60.7v5.7
			h1.3c0.5,0,0.8,0,1-0.1c0.3-0.1,0.5-0.2,0.7-0.4s0.3-0.4,0.5-0.8s0.2-0.9,0.2-1.6s-0.1-1.2-0.2-1.5s-0.3-0.6-0.5-0.8
			s-0.5-0.3-0.8-0.4c-0.2-0.1-0.7-0.1-1.4-0.1H114z"/>
		<path class="st0" d="M124.6,65.9l1.6,0.3c-0.2,0.6-0.5,1.1-1,1.4s-1,0.5-1.7,0.5c-1.1,0-1.9-0.4-2.4-1.1c-0.4-0.6-0.6-1.3-0.6-2.1
			c0-1,0.3-1.8,0.8-2.4s1.2-0.9,2-0.9c0.9,0,1.7,0.3,2.2,0.9s0.8,1.5,0.8,2.8h-4.1c0,0.5,0.1,0.9,0.4,1.1s0.6,0.4,0.9,0.4
			c0.3,0,0.5-0.1,0.7-0.2S124.5,66.2,124.6,65.9z M124.6,64.2c0-0.5-0.1-0.8-0.4-1.1s-0.5-0.4-0.9-0.4c-0.4,0-0.7,0.1-0.9,0.4
			s-0.3,0.6-0.3,1.1H124.6z"/>
		<path class="st0" d="M133.3,67.8h-1.6v-3.2c0-0.7,0-1.1-0.1-1.3s-0.2-0.4-0.3-0.5s-0.3-0.2-0.6-0.2c-0.3,0-0.5,0.1-0.8,0.2
			s-0.4,0.4-0.5,0.6s-0.1,0.7-0.1,1.4v2.8h-1.6v-6.2h1.5v0.9c0.5-0.7,1.2-1.1,2.1-1.1c0.4,0,0.7,0.1,1,0.2s0.5,0.3,0.7,0.5
			s0.3,0.4,0.3,0.7s0.1,0.6,0.1,1.1V67.8z"/>
		<path class="st0" d="M137.8,61.6v1.3h-1.1v2.5c0,0.5,0,0.8,0,0.9s0.1,0.2,0.1,0.2s0.2,0.1,0.3,0.1c0.2,0,0.4-0.1,0.7-0.2l0.1,1.3
			c-0.4,0.2-0.8,0.2-1.3,0.2c-0.3,0-0.6,0-0.8-0.1s-0.4-0.2-0.5-0.4s-0.2-0.4-0.2-0.6c0-0.2-0.1-0.6-0.1-1.2v-2.7h-0.8v-1.3h0.8
			v-1.2l1.7-1v2.2H137.8z"/>
		<path class="st0" d="M140.5,67.8h-1.6v-6.2h1.5v0.9c0.3-0.4,0.5-0.7,0.7-0.8s0.4-0.2,0.7-0.2c0.4,0,0.7,0.1,1.1,0.3l-0.5,1.4
			c-0.3-0.2-0.5-0.3-0.8-0.3c-0.2,0-0.4,0.1-0.6,0.2s-0.3,0.4-0.4,0.7s-0.1,1-0.1,2.1V67.8z"/>
		<path class="st0" d="M143.2,64.6c0-0.5,0.1-1.1,0.4-1.6s0.7-0.9,1.1-1.2s1-0.4,1.7-0.4c0.9,0,1.7,0.3,2.3,0.9s0.9,1.4,0.9,2.3
			c0,0.9-0.3,1.7-0.9,2.3s-1.4,0.9-2.3,0.9c-0.6,0-1.1-0.1-1.6-0.4s-0.9-0.6-1.2-1.1S143.2,65.3,143.2,64.6z M144.9,64.7
			c0,0.6,0.1,1.1,0.4,1.4s0.7,0.5,1.1,0.5s0.8-0.2,1.1-0.5s0.4-0.8,0.4-1.4c0-0.6-0.1-1.1-0.4-1.4s-0.7-0.5-1.1-0.5
			s-0.8,0.2-1.1,0.5S144.9,64.1,144.9,64.7z"/>
		<path class="st0" d="M160,67.8h-1.5v-0.9c-0.3,0.4-0.6,0.6-0.9,0.8s-0.7,0.3-1,0.3c-0.7,0-1.3-0.3-1.8-0.9s-0.8-1.4-0.8-2.4
			c0-1.1,0.2-1.9,0.7-2.4s1.1-0.8,1.9-0.8c0.7,0,1.3,0.3,1.8,0.9v-3.1h1.6V67.8z M155.6,64.6c0,0.7,0.1,1.1,0.3,1.4
			c0.3,0.4,0.6,0.6,1.1,0.6c0.4,0,0.7-0.2,1-0.5s0.4-0.8,0.4-1.4c0-0.7-0.1-1.2-0.4-1.5s-0.6-0.5-1-0.5c-0.4,0-0.7,0.2-1,0.5
			S155.6,64,155.6,64.6z"/>
		<path class="st0" d="M165.2,65.9l1.6,0.3c-0.2,0.6-0.5,1.1-1,1.4s-1,0.5-1.7,0.5c-1.1,0-1.9-0.4-2.4-1.1c-0.4-0.6-0.6-1.3-0.6-2.1
			c0-1,0.3-1.8,0.8-2.4s1.2-0.9,2-0.9c0.9,0,1.7,0.3,2.2,0.9s0.8,1.5,0.8,2.8h-4.1c0,0.5,0.1,0.9,0.4,1.1s0.6,0.4,0.9,0.4
			c0.3,0,0.5-0.1,0.7-0.2S165.1,66.2,165.2,65.9z M165.3,64.2c0-0.5-0.1-0.8-0.4-1.1s-0.5-0.4-0.9-0.4c-0.4,0-0.7,0.1-0.9,0.4
			s-0.3,0.6-0.3,1.1H165.3z"/>
		<path class="st0" d="M171.6,67.8v-8.6h1.6v8.6H171.6z"/>
		<path class="st0" d="M176.2,63.5l-1.5-0.3c0.2-0.6,0.5-1,0.9-1.3s1-0.4,1.8-0.4c0.7,0,1.3,0.1,1.6,0.3s0.6,0.4,0.8,0.7
			s0.2,0.8,0.2,1.5l0,1.9c0,0.5,0,1,0.1,1.2s0.2,0.5,0.3,0.8h-1.6c0-0.1-0.1-0.3-0.2-0.5c0-0.1,0-0.2-0.1-0.2
			c-0.3,0.3-0.6,0.5-0.9,0.6s-0.7,0.2-1,0.2c-0.6,0-1.1-0.2-1.5-0.5s-0.6-0.8-0.6-1.3c0-0.4,0.1-0.7,0.3-0.9s0.4-0.5,0.7-0.6
			s0.7-0.3,1.3-0.4c0.8-0.1,1.3-0.3,1.6-0.4v-0.2c0-0.3-0.1-0.5-0.2-0.7s-0.5-0.2-0.9-0.2c-0.3,0-0.5,0.1-0.7,0.2
			S176.3,63.2,176.2,63.5z M178.4,64.8c-0.2,0.1-0.5,0.2-1,0.3s-0.8,0.2-0.9,0.3c-0.2,0.2-0.3,0.3-0.3,0.6c0,0.2,0.1,0.4,0.3,0.6
			s0.4,0.3,0.7,0.3c0.3,0,0.6-0.1,0.8-0.3c0.2-0.1,0.3-0.3,0.4-0.5c0-0.1,0.1-0.4,0.1-0.8V64.8z"/>
		<path class="st0" d="M181.1,66.1l1.7-0.3c0.1,0.3,0.2,0.6,0.4,0.7s0.5,0.2,0.9,0.2c0.4,0,0.7-0.1,1-0.2c0.1-0.1,0.2-0.3,0.2-0.4
			c0-0.1,0-0.2-0.1-0.3c-0.1-0.1-0.3-0.2-0.6-0.2c-1.3-0.3-2.2-0.6-2.5-0.8c-0.5-0.3-0.7-0.8-0.7-1.4c0-0.5,0.2-1,0.6-1.4
			s1.1-0.6,2-0.6c0.9,0,1.5,0.1,1.9,0.4s0.7,0.7,0.9,1.2l-1.6,0.3c-0.1-0.2-0.2-0.4-0.4-0.6s-0.5-0.2-0.8-0.2
			c-0.4,0-0.7,0.1-0.9,0.2c-0.1,0.1-0.2,0.2-0.2,0.3c0,0.1,0.1,0.2,0.2,0.3c0.1,0.1,0.7,0.3,1.5,0.5s1.5,0.4,1.8,0.7
			c0.3,0.3,0.5,0.7,0.5,1.2c0,0.6-0.2,1.1-0.7,1.5S185,68,184,68c-0.8,0-1.5-0.2-2-0.5S181.2,66.6,181.1,66.1z"/>
		<path class="st0" d="M191.3,64.6c0-0.5,0.1-1.1,0.4-1.6s0.7-0.9,1.1-1.2s1-0.4,1.7-0.4c0.9,0,1.7,0.3,2.3,0.9s0.9,1.4,0.9,2.3
			c0,0.9-0.3,1.7-0.9,2.3s-1.4,0.9-2.3,0.9c-0.6,0-1.1-0.1-1.6-0.4s-0.9-0.6-1.2-1.1S191.3,65.3,191.3,64.6z M192.9,64.7
			c0,0.6,0.1,1.1,0.4,1.4s0.7,0.5,1.1,0.5s0.8-0.2,1.1-0.5s0.4-0.8,0.4-1.4c0-0.6-0.1-1.1-0.4-1.4s-0.7-0.5-1.1-0.5
			s-0.8,0.2-1.1,0.5S192.9,64.1,192.9,64.7z"/>
		<path class="st0" d="M198.2,61.6h0.9v-0.5c0-0.5,0.1-0.9,0.2-1.2s0.3-0.5,0.6-0.6s0.7-0.2,1.1-0.2c0.5,0,0.9,0.1,1.4,0.2l-0.2,1.1
			c-0.3-0.1-0.5-0.1-0.8-0.1c-0.2,0-0.4,0.1-0.5,0.2s-0.2,0.3-0.2,0.6v0.4h1.2v1.3h-1.2v4.9h-1.6v-4.9h-0.9V61.6z"/>
		<path class="st0" d="M203,60.8v-1.5h1.6v1.5H203z M203,67.8v-6.2h1.6v6.2H203z"/>
		<path class="st0" d="M211.7,63.5l-1.6,0.3c-0.1-0.3-0.2-0.6-0.4-0.7s-0.4-0.2-0.8-0.2c-0.4,0-0.7,0.1-1,0.4s-0.4,0.8-0.4,1.4
			c0,0.7,0.1,1.3,0.4,1.6s0.6,0.5,1,0.5c0.3,0,0.6-0.1,0.8-0.3s0.3-0.5,0.4-0.9l1.6,0.3c-0.2,0.7-0.5,1.3-1,1.7s-1.1,0.6-1.9,0.6
			c-0.9,0-1.6-0.3-2.2-0.9s-0.8-1.4-0.8-2.4c0-1,0.3-1.8,0.8-2.4s1.3-0.9,2.2-0.9c0.8,0,1.4,0.2,1.8,0.5S211.5,62.8,211.7,63.5z"/>
		<path class="st0" d="M213,60.8v-1.5h1.6v1.5H213z M213,67.8v-6.2h1.6v6.2H213z"/>
		<path class="st0" d="M222,67.8h-1.6v-3.2c0-0.7,0-1.1-0.1-1.3s-0.2-0.4-0.3-0.5s-0.3-0.2-0.6-0.2c-0.3,0-0.5,0.1-0.8,0.2
			s-0.4,0.4-0.5,0.6s-0.1,0.7-0.1,1.4v2.8h-1.6v-6.2h1.5v0.9c0.5-0.7,1.2-1.1,2.1-1.1c0.4,0,0.7,0.1,1,0.2s0.5,0.3,0.7,0.5
			s0.3,0.4,0.3,0.7s0.1,0.6,0.1,1.1V67.8z"/>
		<path class="st0" d="M224.9,63.5l-1.5-0.3c0.2-0.6,0.5-1,0.9-1.3s1-0.4,1.8-0.4c0.7,0,1.3,0.1,1.6,0.3s0.6,0.4,0.8,0.7
			s0.2,0.8,0.2,1.5l0,1.9c0,0.5,0,1,0.1,1.2s0.2,0.5,0.3,0.8h-1.6c0-0.1-0.1-0.3-0.2-0.5c0-0.1,0-0.2-0.1-0.2
			c-0.3,0.3-0.6,0.5-0.9,0.6s-0.7,0.2-1,0.2c-0.6,0-1.1-0.2-1.5-0.5s-0.6-0.8-0.6-1.3c0-0.4,0.1-0.7,0.3-0.9s0.4-0.5,0.7-0.6
			s0.7-0.3,1.3-0.4c0.8-0.1,1.3-0.3,1.6-0.4v-0.2c0-0.3-0.1-0.5-0.2-0.7s-0.5-0.2-0.9-0.2c-0.3,0-0.5,0.1-0.7,0.2
			S225,63.2,224.9,63.5z M227.1,64.8c-0.2,0.1-0.5,0.2-1,0.3s-0.8,0.2-0.9,0.3c-0.2,0.2-0.3,0.3-0.3,0.6c0,0.2,0.1,0.4,0.3,0.6
			s0.4,0.3,0.7,0.3c0.3,0,0.6-0.1,0.8-0.3c0.2-0.1,0.3-0.3,0.4-0.5c0-0.1,0.1-0.4,0.1-0.8V64.8z"/>
		<path class="st0" d="M229.7,66.1l1.7-0.3c0.1,0.3,0.2,0.6,0.4,0.7s0.5,0.2,0.9,0.2c0.4,0,0.7-0.1,1-0.2c0.1-0.1,0.2-0.3,0.2-0.4
			c0-0.1,0-0.2-0.1-0.3c-0.1-0.1-0.3-0.2-0.6-0.2c-1.3-0.3-2.2-0.6-2.5-0.8c-0.5-0.3-0.7-0.8-0.7-1.4c0-0.5,0.2-1,0.6-1.4
			s1.1-0.6,2-0.6c0.9,0,1.5,0.1,1.9,0.4s0.7,0.7,0.9,1.2l-1.6,0.3c-0.1-0.2-0.2-0.4-0.4-0.6s-0.5-0.2-0.8-0.2
			c-0.4,0-0.7,0.1-0.9,0.2c-0.1,0.1-0.2,0.2-0.2,0.3c0,0.1,0.1,0.2,0.2,0.3c0.1,0.1,0.7,0.3,1.5,0.5s1.5,0.4,1.8,0.7
			c0.3,0.3,0.5,0.7,0.5,1.2c0,0.6-0.2,1.1-0.7,1.5s-1.2,0.6-2.1,0.6c-0.8,0-1.5-0.2-2-0.5S229.9,66.6,229.7,66.1z"/>
		<path class="st0" d="M173.3,82.2h-1.5v-0.9c-0.3,0.4-0.6,0.6-0.9,0.8s-0.7,0.3-1,0.3c-0.7,0-1.3-0.3-1.8-0.9s-0.8-1.4-0.8-2.4
			c0-1.1,0.2-1.9,0.7-2.4s1.1-0.8,1.9-0.8c0.7,0,1.3,0.3,1.8,0.9v-3.1h1.6V82.2z M168.9,79c0,0.7,0.1,1.1,0.3,1.4
			c0.3,0.4,0.6,0.6,1.1,0.6c0.4,0,0.7-0.2,1-0.5s0.4-0.8,0.4-1.4c0-0.7-0.1-1.2-0.4-1.5s-0.6-0.5-1-0.5c-0.4,0-0.7,0.2-1,0.5
			S168.9,78.4,168.9,79z"/>
		<path class="st0" d="M178.6,80.3l1.6,0.3c-0.2,0.6-0.5,1.1-1,1.4s-1,0.5-1.7,0.5c-1.1,0-1.9-0.4-2.4-1.1c-0.4-0.6-0.6-1.3-0.6-2.1
			c0-1,0.3-1.8,0.8-2.4s1.2-0.9,2-0.9c0.9,0,1.7,0.3,2.2,0.9s0.8,1.5,0.8,2.8h-4.1c0,0.5,0.1,0.9,0.4,1.1s0.6,0.4,0.9,0.4
			c0.3,0,0.5-0.1,0.7-0.2S178.5,80.6,178.6,80.3z M178.7,78.6c0-0.5-0.1-0.8-0.4-1.1s-0.5-0.4-0.9-0.4c-0.4,0-0.7,0.1-0.9,0.4
			s-0.3,0.6-0.3,1.1H178.7z"/>
	</g>
</g>
</svg>
